<?xml version="1.0" encoding="UTF-8" standalone="no"?>
<svg
   xmlns:dc="http://purl.org/dc/elements/1.1/"
   xmlns:cc="http://creativecommons.org/ns#"
   xmlns:rdf="http://www.w3.org/1999/02/22-rdf-syntax-ns#"
   xmlns:svg="http://www.w3.org/2000/svg"
   xmlns="http://www.w3.org/2000/svg"
   xmlns:sodipodi="http://sodipodi.sourceforge.net/DTD/sodipodi-0.dtd"
   xmlns:inkscape="http://www.inkscape.org/namespaces/inkscape"
   version="1.1"
   x="0px"
   y="0px"
   viewBox="0 0 200 482.03027"
   enable-background="new 0 0 1000 1000"
   xml:space="preserve"
   id="svg270"
   sodipodi:docname="body.svg"
   width="200"
   height="482.03027"
   inkscape:version="1.0beta2 (unknown)"><metadata
   id="metadata276"><rdf:RDF><cc:Work
       rdf:about=""><dc:format>image/svg+xml</dc:format><dc:type
         rdf:resource="http://purl.org/dc/dcmitype/StillImage" /><dc:title></dc:title></cc:Work></rdf:RDF></metadata><defs
   id="defs274" /><sodipodi:namedview
   pagecolor="#ffffff"
   bordercolor="#666666"
   inkscape:document-rotation="0"
   borderopacity="1"
   objecttolerance="10"
   gridtolerance="10"
   guidetolerance="10"
   inkscape:pageopacity="0"
   inkscape:pageshadow="2"
   inkscape:window-width="1920"
   inkscape:window-height="1016"
   id="namedview272"
   showgrid="false"
   inkscape:zoom="0.817"
   inkscape:cx="203.40163"
   inkscape:cy="392.0875"
   inkscape:window-x="1920"
   inkscape:window-y="27"
   inkscape:window-maximized="1"
   inkscape:current-layer="svg270"
   showborder="true"
   fit-margin-top="0"
   fit-margin-left="0"
   fit-margin-right="0"
   fit-margin-bottom="0" />
<g
   id="g268"
   transform="matrix(0.49168442,0,0,0.49168442,-145.8328,-4.9135429)"><g
     id="g236"><g
       id="g234"><path
         style="fill:#b0bec5"
         d="m 680.4,502.4 c -5.7,-7.2 -13.1,-16.8 -15.1,-22.5 -3.5,-9.6 -6.2,-40.6 -6.2,-40.6 C 658,402.7 649,386.9 649,386.9 633.5,362.2 630.7,316 630.7,316 L 630,238.1 c -5.4,-53.1 -44.6,-53.6 -44.6,-53.6 -30.6,-4.6 -40.7,-13.1 -43.8,-16.9 l 0.5,-0.1 c 0,0 -28.9,-44.2 -16.3,-62.8 0,0 15.7,-21.4 15.9,-33 0,0 3.9,-19.7 -16.5,-41.7 C 515.3,19.5 502.4,9.7 471,10 c -12.3,0.1 -31,3.4 -45.3,19 -8.7,9.4 -15,21.3 -12.8,40.5 0.4,4.2 6.5,8.8 2.4,17 l -8.4,18.6 c 0,0 -0.1,4.8 7.3,4.8 0,0 1.9,0.2 1.4,4.3 v 6 c 0,0 0.3,1.8 3.5,2.8 l -0.3,1.8 c 0,0 -1.7,1.9 1.3,6 1.1,1.5 2.9,3.4 2,7.3 l 1.7,9.3 c 0,0 3.4,4 16.9,2.1 4.7,-0.7 13.4,-3.1 18.6,3.4 0,0 0.9,7.5 1.8,13 h -1.3 c 0,0 -5.5,12.8 -45,18.7 0,0 -39.2,0.4 -44.7,53.6 l -0.7,77.9 c 0,0 -2.9,46.1 -18.4,70.9 0,0 -9,15.9 -10.1,52.4 0,0 -2.6,30.9 -6.1,40.5 -2.1,5.7 -9.4,15.3 -15.2,22.5 -11.2,14 -30.3,43.3 -20.1,46.6 0,0 7.8,0.7 18.4,-19.8 0,0 -0.2,7.9 -8.6,30.9 -1.7,4.4 -8.6,26.3 2.7,18.4 0,0 5.1,-3.6 12,-26.1 0,0 -3.6,37.9 0.4,39.9 5.3,2.6 8.2,-4.9 10.6,-38.2 0,0 2.4,-10.7 3.6,30.3 0.1,2.1 3.2,12.6 7.5,3.7 3.6,-7.5 2,-27.6 2,-34.2 0,0 4.7,25.9 8.9,25.9 0,0 5.1,6 3.1,-26 -0.4,-5.3 1.5,-16.1 1.7,-19.3 l 0.5,-12.3 c 0,0 -1.3,-14.1 -1.3,-19.9 0,-1.5 5,-20.7 18.4,-41 0,0 27.7,-49.1 25.9,-81.2 0,0 -0.4,-30.6 10.7,-48 0,0 7.9,86.7 2.5,111.1 0,0 -24.9,59.8 -19.4,104.5 4.1,33.2 11.8,104.2 19.8,132.2 4.1,14.5 1.7,51 5,60.2 1.4,3.9 0.7,7.6 -2.5,16.7 -11.2,31.4 -9.8,53.6 18.3,136.9 0,0 8.7,18.4 4.3,51.7 0,0 -18,36.9 -6.4,37.7 0,0 1,2.4 4.8,0.5 0,0 6.2,6.4 12.9,2.9 0,0 6.2,4.9 11.5,0.6 0,0 4.4,4.8 10.5,1 0,0 8.2,5.4 13,-0.5 0,0 8.7,2 -6.7,-36.9 0,0 -5.9,-41.2 -9,-49.3 -6.1,-15.4 -1.9,-57.4 -0.5,-66.4 2.1,-15 1,-40.7 -2.9,-60.5 -2.8,-14.3 4.9,-41.2 7.7,-57.7 5.9,-34.7 17.2,-123.5 15.8,-140.3 l 4.8,1.6 c 3.4,0 5.6,-1.6 5.6,-1.6 -1.4,16.7 10,105.5 15.9,140.3 2.7,16.5 10.4,43.4 7.6,57.7 -3.9,19.8 -5,45.5 -2.9,60.5 1.3,9.1 5.7,51.1 -0.4,66.4 -3.3,8 -9.1,49.3 -9.1,49.3 -15.4,38.8 -6.7,36.9 -6.7,36.9 4.8,5.9 13,0.5 13,0.5 6.2,3.9 10.5,-1 10.5,-1 5.4,4.4 11.5,-0.6 11.5,-0.6 6.8,3.5 13,-2.9 13,-2.9 3.8,2 4.8,-0.5 4.8,-0.5 11.6,-0.7 -6.4,-37.7 -6.4,-37.7 -4.4,-33.3 4.3,-51.7 4.3,-51.7 28,-83.4 29.5,-105.5 18.3,-136.9 -3.3,-9 -4,-12.7 -2.6,-16.7 3.4,-9.1 1,-45.7 5.1,-60.2 7.9,-27.9 15.7,-99 19.8,-132.2 C 605.9,502.9 581,443 581,443 c -5.4,-24.3 2.6,-111.1 2.6,-111.1 11.2,17.3 10.8,48 10.8,48 -1.8,32.1 25.9,81.2 25.9,81.2 13.3,20.3 18.3,39.6 18.3,41 0,5.8 -1.3,19.9 -1.3,19.9 l 0.5,12.3 c 0.3,3.2 2,14 1.7,19.3 -2.1,32 3,26 3,26 4.4,0 9.1,-25.9 9.1,-25.9 0,6.6 -1.6,26.6 2,34.2 4.3,8.9 7.5,-1.6 7.5,-3.7 1.1,-40.9 3.5,-30.2 3.5,-30.2 2.4,33.2 5.4,40.7 10.6,38.1 4,-2 0.4,-39.9 0.4,-39.9 6.9,22.5 12.1,26.1 12.1,26.1 11.3,7.9 4.3,-14 2.8,-18.4 -8.5,-23 -8.6,-30.9 -8.6,-30.9 10.7,20.7 18.6,19.9 18.6,19.9 10.1,-3.2 -8.9,-32.5 -20.1,-46.5 z M 432.7,62.4 c -2.9,-2.9 -5.4,-5.5 -5.8,-9.3 -1,-9.1 1,-13.1 5.4,-17.9 11.8,-12.9 27.3,-15.8 38.2,-16 29.3,-0.3 39.7,8.3 47.9,17.1 13.4,14.6 14.5,27.3 14.3,31.9 l 0.1,1.7 c 0.3,16.9 -12.1,30.2 -27.7,30.9 -10.9,0.6 -11.6,-6.8 -16.9,-12.3 L 486,88.7 C 473.2,89.3 475.3,75.7 470.3,72 458.5,63.2 441.7,71.2 432.7,62.4 Z"
         id="path232"
         inkscape:connector-curvature="0" /></g></g><g
     id="g238" /><g
     id="g240" /><g
     id="g242" /><g
     id="g244" /><g
     id="g246" /><g
     id="g248" /><g
     id="g250" /><g
     id="g252" /><g
     id="g254" /><g
     id="g256" /><g
     id="g258" /><g
     id="g260" /><g
     id="g262" /><g
     id="g264" /><g
     id="g266" /></g>
</svg>
