<svg width="2006" height="577" viewBox="0 0 2006 577" fill="none" xmlns="http://www.w3.org/2000/svg">
<circle cx="309" cy="309" r="244" fill="#FBBC05" stroke="white" stroke-width="24"/>
<circle cx="158" cy="158" r="146" fill="#42A5F5" stroke="white" stroke-width="24"/>
<mask id="path-3-inside-1" fill="white">
<path fill-rule="evenodd" clip-rule="evenodd" d="M158 316C245.261 316 316 245.261 316 158C316 118.598 301.577 82.5648 277.723 54.8916C161.342 69.0684 69.0684 161.342 54.8916 277.723C82.5648 301.577 118.598 316 158 316Z"/>
</mask>
<path fill-rule="evenodd" clip-rule="evenodd" d="M158 316C245.261 316 316 245.261 316 158C316 118.598 301.577 82.5648 277.723 54.8916C161.342 69.0684 69.0684 161.342 54.8916 277.723C82.5648 301.577 118.598 316 158 316Z" fill="#64DD17"/>
<path d="M277.723 54.8916L295.901 39.2217L287.537 29.5187L274.821 31.0677L277.723 54.8916ZM54.8916 277.723L31.0677 274.821L29.5187 287.537L39.2217 295.901L54.8916 277.723ZM292 158C292 232.006 232.006 292 158 292V340C258.516 340 340 258.516 340 158H292ZM259.544 70.5615C279.786 94.0433 292 124.565 292 158H340C340 112.631 323.369 71.0863 295.901 39.2217L259.544 70.5615ZM78.7155 280.625C91.5579 175.199 175.199 91.5579 280.625 78.7155L274.821 31.0677C147.485 46.5789 46.5789 147.485 31.0677 274.821L78.7155 280.625ZM158 292C124.565 292 94.0433 279.786 70.5615 259.544L39.2217 295.901C71.0863 323.369 112.631 340 158 340V292Z" fill="white" mask="url(#path-3-inside-1)"/>
<path d="M651.672 310.296C658.008 303.96 665.88 298.968 675.288 295.32C684.888 291.672 693.432 289.848 700.92 289.848C719.928 289.848 733.368 295.416 741.24 306.552C749.304 317.688 753.336 331.32 753.336 347.448V435H715.896V349.176C715.896 340.344 713.784 333.624 709.56 329.016C705.336 324.216 699.192 321.816 691.128 321.816C685.752 321.816 680.088 323.256 674.136 326.136C668.376 328.824 663.096 331.992 658.296 335.64V435H620.856V295.32H640.44L651.672 310.296ZM860.207 438.456C836.015 438.456 816.911 431.832 802.895 418.584C789.071 405.336 782.159 387.576 782.159 365.304C782.159 343.032 788.399 325.176 800.879 311.736C813.551 298.296 830.735 291.576 852.431 291.576C874.319 291.576 890.351 298.872 900.527 313.464C910.895 327.864 916.079 344.952 916.079 364.728V376.248H821.903C823.631 385.464 827.855 392.856 834.575 398.424C841.295 403.8 850.127 406.488 861.071 406.488C867.407 406.488 873.071 405.72 878.063 404.184C883.247 402.456 889.199 400.056 895.919 396.984L906.863 424.056C900.335 429.048 892.367 432.696 882.959 435C873.743 437.304 866.159 438.456 860.207 438.456ZM880.655 351.192C878.735 341.784 875.279 334.872 870.287 330.456C865.295 325.848 859.055 323.544 851.567 323.544C843.887 323.544 837.455 325.944 832.271 330.744C827.087 335.352 823.727 342.168 822.191 351.192H880.655ZM1044.22 421.176C1037.88 427.128 1030.1 431.832 1020.89 435.288C1011.67 438.936 1003.32 440.76 995.832 440.76C976.824 440.76 963.288 435.192 955.224 424.056C947.352 412.728 943.416 399.096 943.416 383.16V295.32H981.144V381.432C981.144 390.264 983.256 397.08 987.48 401.88C991.704 406.488 997.848 408.792 1005.91 408.792C1010.9 408.792 1016.18 407.544 1021.75 405.048C1027.32 402.552 1032.41 399.672 1037.02 396.408V295.32H1074.46V435H1054.87L1044.22 421.176ZM1187.12 295.32L1194.61 325.272C1188.27 325.272 1180.88 327.096 1172.43 330.744C1164.18 334.392 1156.02 339.768 1147.95 346.872V435H1110.51V295.32H1130.1L1142.48 315.768C1148.24 310.776 1155.25 306.168 1163.5 301.944C1171.76 297.528 1179.63 295.32 1187.12 295.32ZM1241.67 393.24C1241.67 397.272 1243.3 400.92 1246.56 404.184C1249.83 407.256 1254.15 408.792 1259.52 408.792C1264.71 408.792 1269.89 407.64 1275.08 405.336C1280.45 403.032 1285.54 399.576 1290.34 394.968V373.656H1262.12C1255.59 373.656 1250.5 375.672 1246.85 379.704C1243.4 383.736 1241.67 388.248 1241.67 393.24ZM1260.1 438.456C1243.01 438.456 1230.34 434.328 1222.08 426.072C1213.83 417.624 1209.7 406.68 1209.7 393.24C1209.7 378.84 1214.6 367.8 1224.39 360.12C1234.18 352.44 1246.95 348.6 1262.69 348.6H1290.05C1289.86 341.496 1287.75 336.024 1283.72 332.184C1279.88 328.152 1274.5 326.136 1267.59 326.136C1261.06 326.136 1253.96 327.096 1246.28 329.016C1238.6 330.744 1232.16 332.856 1226.98 335.352L1216.9 304.248C1222.28 300.6 1230.44 297.624 1241.38 295.32C1252.52 292.824 1261.06 291.576 1267.01 291.576C1283.72 291.576 1298.02 296.472 1309.92 306.264C1321.83 315.864 1327.78 328.152 1327.78 343.128V435H1308.48L1299.27 423.192C1294.08 427.224 1287.94 430.776 1280.84 433.848C1273.92 436.92 1267.01 438.456 1260.1 438.456ZM1482.33 311.736C1488.28 305.016 1496.15 299.736 1505.94 295.896C1515.93 291.864 1524.86 289.848 1532.73 289.848C1551.74 289.848 1565.18 295.416 1573.05 306.552C1581.11 317.688 1585.14 331.32 1585.14 347.448V435H1547.42V349.176C1547.42 340.344 1545.3 333.624 1541.08 329.016C1536.86 324.216 1530.71 321.816 1522.65 321.816C1517.27 321.816 1511.61 323.256 1505.66 326.136C1499.7 329.016 1494.33 332.28 1489.53 335.928C1489.72 337.848 1489.91 339.768 1490.1 341.688C1490.3 343.608 1490.39 345.528 1490.39 347.448V435H1452.66V349.176C1452.66 340.344 1450.55 333.624 1446.33 329.016C1442.1 324.216 1436.06 321.816 1428.18 321.816C1423.38 321.816 1418.49 322.872 1413.5 324.984C1408.7 326.904 1404.09 329.4 1399.67 332.472V435H1362.23V295.32H1381.82L1391.03 307.992C1397.37 302.232 1404.95 297.816 1413.78 294.744C1422.81 291.48 1430.87 289.848 1437.98 289.848C1448.92 289.848 1458.04 291.864 1465.34 295.896C1472.63 299.736 1478.3 305.016 1482.33 311.736ZM1647.23 393.24C1647.23 397.272 1648.86 400.92 1652.13 404.184C1655.39 407.256 1659.71 408.792 1665.09 408.792C1670.27 408.792 1675.45 407.64 1680.64 405.336C1686.01 403.032 1691.1 399.576 1695.9 394.968V373.656H1667.68C1661.15 373.656 1656.06 375.672 1652.41 379.704C1648.96 383.736 1647.23 388.248 1647.23 393.24ZM1665.66 438.456C1648.57 438.456 1635.9 434.328 1627.65 426.072C1619.39 417.624 1615.26 406.68 1615.26 393.24C1615.26 378.84 1620.16 367.8 1629.95 360.12C1639.74 352.44 1652.51 348.6 1668.25 348.6H1695.61C1695.42 341.496 1693.31 336.024 1689.28 332.184C1685.44 328.152 1680.06 326.136 1673.15 326.136C1666.62 326.136 1659.52 327.096 1651.84 329.016C1644.16 330.744 1637.73 332.856 1632.54 335.352L1622.46 304.248C1627.84 300.6 1636 297.624 1646.94 295.32C1658.08 292.824 1666.62 291.576 1672.57 291.576C1689.28 291.576 1703.58 296.472 1715.49 306.264C1727.39 315.864 1733.34 328.152 1733.34 343.128V435H1714.05L1704.83 423.192C1699.65 427.224 1693.5 430.776 1686.4 433.848C1679.49 436.92 1672.57 438.456 1665.66 438.456ZM1844.4 295.32L1851.89 325.272C1845.55 325.272 1838.16 327.096 1829.71 330.744C1821.46 334.392 1813.3 339.768 1805.23 346.872V435H1767.79V295.32H1787.38L1799.76 315.768C1805.52 310.776 1812.53 306.168 1820.79 301.944C1829.04 297.528 1836.91 295.32 1844.4 295.32ZM1910.18 231.672V346.296L1970.08 291.288L1991.11 317.784L1951.94 352.056L2003.2 435H1960.29L1925.16 375.96L1910.18 389.208V435H1873.03V234.84L1910.18 231.672Z" fill="black"/>
</svg>
