<svg width="1000" height="200" viewBox="0 0 1000 200" fill="none" xmlns="http://www.w3.org/2000/svg">
<rect width="1000" height="200" fill="white"/>
<rect x="378.5" y="127.5" width="45" height="45" rx="3.5" fill="white" stroke="black" stroke-width="3"/>
<rect x="576.5" y="127.5" width="45" height="45" rx="3.5" fill="white" stroke="black" stroke-width="3"/>
<rect x="510.5" y="127.5" width="45" height="45" rx="3.5" fill="white" stroke="black" stroke-width="3"/>
<rect x="444.5" y="127.5" width="45" height="45" rx="3.5" fill="white" stroke="black" stroke-width="3"/>
<path d="M382.226 144.301C382.053 144.452 381.917 144.642 381.829 144.854L381.614 145.374C381.469 145.724 381.462 146.115 381.593 146.469L381.809 147.05C381.879 147.239 381.986 147.412 382.124 147.558L383.478 148.994L385.261 151.122L387.407 154.085L389.184 157.051L390.651 159.551L391.985 162.44L392.98 164.989L392.984 164.998L393.719 166.916C393.736 166.962 393.757 167.008 393.779 167.053L394.456 168.399C394.577 168.64 394.761 168.843 394.988 168.989L395.419 169.264C395.66 169.418 395.94 169.5 396.227 169.5H397.334C397.473 169.5 397.611 169.481 397.744 169.443L399.251 169.015C399.335 168.991 399.417 168.96 399.495 168.922L400.695 168.341C400.737 168.32 400.778 168.298 400.819 168.273L403.895 166.408C403.982 166.355 404.063 166.293 404.138 166.224L405.553 164.909C405.627 164.839 405.694 164.763 405.753 164.68L406.276 163.946C406.315 163.891 406.35 163.834 406.382 163.775L406.72 163.133C406.73 163.113 406.74 163.094 406.75 163.074L408.621 159.107L408.626 159.098L411.288 153.56L413.696 148.893L415.673 145.385L417.922 141.607L420.403 137.846L422.582 134.898L426.362 130.079L429.565 126.352L431.603 124.296L432.967 123.147C433.497 122.7 433.652 121.949 433.341 121.329C433.031 120.709 432.337 120.382 431.662 120.539L429.416 121.059C429.354 121.073 429.293 121.091 429.233 121.114L427.418 121.786C427.364 121.807 427.31 121.83 427.258 121.857L424.859 123.08C424.808 123.106 424.759 123.135 424.712 123.166L422.405 124.695C422.365 124.721 422.327 124.749 422.29 124.779L418.661 127.715C418.629 127.741 418.599 127.768 418.569 127.796L414.171 131.986C414.148 132.007 414.127 132.029 414.105 132.052L411.552 134.804C411.532 134.827 411.511 134.85 411.492 134.874L408.785 138.177C408.764 138.203 408.743 138.23 408.724 138.257L406.632 141.194L406.629 141.198L404.814 143.768L404.804 143.781L401.057 149.211L400.695 148.635L400.681 148.613L399.42 146.687C399.395 146.65 399.37 146.614 399.342 146.579L398.112 145.019C398.1 145.004 398.087 144.988 398.074 144.973L396.506 143.138C396.479 143.108 396.452 143.078 396.423 143.049L395.07 141.704C394.98 141.615 394.88 141.537 394.771 141.473L393.571 140.77C393.476 140.714 393.376 140.669 393.272 140.636L392.226 140.299C392.077 140.252 391.922 140.227 391.766 140.227H390.475C390.35 140.227 390.226 140.243 390.105 140.274L388.782 140.61C388.702 140.631 388.623 140.658 388.547 140.691L386.117 141.762C386.063 141.785 386.011 141.812 385.96 141.842L384.299 142.821C384.281 142.831 384.263 142.842 384.246 142.854L382.923 143.71C382.862 143.75 382.804 143.794 382.749 143.842L382.226 144.301Z" fill="#1DC570" stroke="white" stroke-width="3" stroke-linejoin="round"/>
<rect x="377" y="63" width="48" height="48" rx="5" fill="#EA4335"/>
<rect x="575" y="63" width="48" height="48" rx="5" fill="#882BFF"/>
<rect x="509" y="63" width="48" height="48" rx="5" fill="#42A5F5"/>
<rect x="443" y="63" width="48" height="48" rx="5" fill="#FBBC05"/>
<path d="M400.007 99.36C397.871 99.36 396.035 99.036 394.499 98.388C392.963 97.74 391.799 96.888 391.007 95.832C390.215 94.776 389.795 93.636 389.747 92.412C389.747 92.196 389.819 92.016 389.963 91.872C390.107 91.728 390.287 91.656 390.503 91.656H393.707C393.995 91.656 394.211 91.716 394.355 91.836C394.523 91.932 394.679 92.1 394.823 92.34C395.063 93.156 395.615 93.84 396.479 94.392C397.343 94.944 398.519 95.22 400.007 95.22C401.711 95.22 402.995 94.944 403.859 94.392C404.723 93.816 405.155 93.024 405.155 92.016C405.155 91.344 404.927 90.792 404.471 90.36C404.039 89.928 403.379 89.556 402.491 89.244C401.627 88.932 400.331 88.548 398.603 88.092C395.771 87.42 393.695 86.532 392.375 85.428C391.079 84.3 390.431 82.704 390.431 80.64C390.431 79.248 390.803 78.012 391.547 76.932C392.315 75.852 393.407 75 394.823 74.376C396.263 73.752 397.931 73.44 399.827 73.44C401.795 73.44 403.499 73.788 404.939 74.484C406.379 75.18 407.471 76.056 408.215 77.112C408.983 78.144 409.391 79.176 409.439 80.208C409.439 80.424 409.367 80.604 409.223 80.748C409.079 80.892 408.899 80.964 408.683 80.964H405.335C404.831 80.964 404.483 80.736 404.291 80.28C404.147 79.512 403.667 78.876 402.851 78.372C402.035 77.844 401.027 77.58 399.827 77.58C398.483 77.58 397.427 77.832 396.659 78.336C395.891 78.84 395.507 79.572 395.507 80.532C395.507 81.204 395.699 81.756 396.083 82.188C396.467 82.62 397.067 83.004 397.883 83.34C398.723 83.676 399.923 84.048 401.483 84.456C403.595 84.936 405.275 85.476 406.523 86.076C407.795 86.676 408.731 87.432 409.331 88.344C409.931 89.256 410.231 90.42 410.231 91.836C410.231 93.372 409.799 94.716 408.935 95.868C408.095 96.996 406.895 97.86 405.335 98.46C403.799 99.06 402.023 99.36 400.007 99.36Z" fill="white"/>
<path d="M456.28 99C456.088 99 455.908 98.928 455.74 98.784C455.596 98.64 455.524 98.46 455.524 98.244L455.596 97.92L464.272 74.7C464.44 74.1 464.86 73.8 465.532 73.8H469.456C470.08 73.8 470.5 74.1 470.716 74.7L479.392 97.92C479.416 97.992 479.428 98.1 479.428 98.244C479.428 98.46 479.356 98.64 479.212 98.784C479.068 98.928 478.9 99 478.708 99H475.576C475.264 99 475.024 98.928 474.856 98.784C474.688 98.64 474.58 98.484 474.532 98.316L472.84 93.924H462.148L460.456 98.316C460.264 98.772 459.916 99 459.412 99H456.28ZM471.58 89.784L467.476 78.66L463.408 89.784H471.58Z" fill="white"/>
<path d="M523.832 100C523.592 100 523.388 99.916 523.22 99.748C523.052 99.58 522.968 99.376 522.968 99.136V75.7C522.968 75.436 523.04 75.22 523.184 75.052C523.352 74.884 523.568 74.8 523.832 74.8H534.272C537.08 74.8 539.168 75.424 540.536 76.672C541.928 77.896 542.624 79.576 542.624 81.712C542.624 82.96 542.312 84.028 541.688 84.916C541.088 85.78 540.38 86.404 539.564 86.788C540.572 87.244 541.412 87.988 542.084 89.02C542.78 90.052 543.128 91.228 543.128 92.548C543.128 94.78 542.372 96.58 540.86 97.948C539.372 99.316 537.272 100 534.56 100H523.832ZM533.624 85.132C534.872 85.132 535.82 84.832 536.468 84.232C537.116 83.632 537.44 82.828 537.44 81.82C537.44 80.788 537.116 79.996 536.468 79.444C535.82 78.868 534.872 78.58 533.624 78.58H527.972V85.132H533.624ZM533.984 96.184C535.232 96.184 536.204 95.848 536.9 95.176C537.596 94.48 537.944 93.604 537.944 92.548C537.944 91.468 537.596 90.592 536.9 89.92C536.204 89.224 535.232 88.876 533.984 88.876H527.972V96.184H533.984Z" fill="white"/>
<path d="M598.723 99.36C595.411 99.36 592.843 98.508 591.019 96.804C589.219 95.1 588.259 92.7 588.139 89.604C588.115 88.956 588.103 87.9 588.103 86.436C588.103 84.948 588.115 83.868 588.139 83.196C588.259 80.124 589.231 77.736 591.055 76.032C592.903 74.304 595.459 73.44 598.723 73.44C600.859 73.44 602.719 73.812 604.303 74.556C605.887 75.276 607.111 76.272 607.975 77.544C608.839 78.792 609.295 80.208 609.343 81.792V81.864C609.343 82.056 609.259 82.224 609.091 82.368C608.947 82.488 608.779 82.548 608.587 82.548H605.167C604.879 82.548 604.663 82.488 604.519 82.368C604.375 82.248 604.255 82.02 604.159 81.684C603.775 80.172 603.139 79.116 602.251 78.516C601.363 77.892 600.175 77.58 598.687 77.58C595.231 77.58 593.431 79.512 593.287 83.376C593.263 84.024 593.251 85.02 593.251 86.364C593.251 87.708 593.263 88.728 593.287 89.424C593.431 93.288 595.231 95.22 598.687 95.22C600.175 95.22 601.363 94.908 602.251 94.284C603.163 93.66 603.799 92.604 604.159 91.116C604.231 90.78 604.339 90.552 604.483 90.432C604.651 90.312 604.879 90.252 605.167 90.252H608.587C608.803 90.252 608.983 90.324 609.127 90.468C609.295 90.612 609.367 90.792 609.343 91.008C609.295 92.592 608.839 94.02 607.975 95.292C607.111 96.54 605.887 97.536 604.303 98.28C602.719 99 600.859 99.36 598.723 99.36Z" fill="white"/>
<path d="M160.026 36C159.786 36 159.582 35.928 159.414 35.784C159.27 35.616 159.198 35.412 159.198 35.172V11.628C159.198 11.364 159.27 11.16 159.414 11.016C159.582 10.872 159.786 10.8 160.026 10.8H161.862C162.102 10.8 162.306 10.884 162.474 11.052C162.642 11.196 162.726 11.388 162.726 11.628V32.76H171.546V11.628C171.546 11.388 171.618 11.196 171.762 11.052C171.93 10.884 172.134 10.8 172.374 10.8H174.21C174.45 10.8 174.654 10.884 174.822 11.052C174.99 11.196 175.074 11.388 175.074 11.628V32.76H183.894V11.628C183.894 11.388 183.966 11.196 184.11 11.052C184.278 10.884 184.482 10.8 184.722 10.8H186.558C186.822 10.8 187.026 10.884 187.17 11.052C187.338 11.196 187.422 11.388 187.422 11.628V35.172C187.422 35.412 187.338 35.616 187.17 35.784C187.026 35.928 186.822 36 186.558 36H160.026ZM198.439 36.36C197.263 36.36 196.171 36.12 195.163 35.64C194.155 35.16 193.351 34.512 192.751 33.696C192.175 32.856 191.887 31.932 191.887 30.924C191.887 29.34 192.535 28.044 193.831 27.036C195.151 26.004 196.927 25.332 199.159 25.02L204.523 24.264V23.22C204.523 20.772 203.119 19.548 200.311 19.548C199.255 19.548 198.391 19.776 197.719 20.232C197.047 20.664 196.543 21.18 196.207 21.78C196.135 21.996 196.039 22.152 195.919 22.248C195.823 22.344 195.679 22.392 195.487 22.392H193.939C193.723 22.392 193.531 22.32 193.363 22.176C193.219 22.008 193.147 21.816 193.147 21.6C193.171 21.024 193.435 20.376 193.939 19.656C194.467 18.912 195.271 18.276 196.351 17.748C197.431 17.196 198.763 16.92 200.347 16.92C203.035 16.92 204.967 17.556 206.143 18.828C207.319 20.076 207.907 21.636 207.907 23.508V35.172C207.907 35.412 207.823 35.616 207.655 35.784C207.511 35.928 207.319 36 207.079 36H205.423C205.183 36 204.979 35.928 204.811 35.784C204.667 35.616 204.595 35.412 204.595 35.172V33.624C204.067 34.392 203.299 35.04 202.291 35.568C201.283 36.096 199.999 36.36 198.439 36.36ZM199.195 33.66C200.755 33.66 202.027 33.156 203.011 32.148C204.019 31.116 204.523 29.64 204.523 27.72V26.712L200.347 27.324C198.643 27.564 197.359 27.972 196.495 28.548C195.631 29.1 195.199 29.808 195.199 30.672C195.199 31.632 195.595 32.376 196.387 32.904C197.179 33.408 198.115 33.66 199.195 33.66ZM213.91 36C213.67 36 213.466 35.928 213.298 35.784C213.154 35.616 213.082 35.412 213.082 35.172V18.108C213.082 17.868 213.154 17.676 213.298 17.532C213.466 17.364 213.67 17.28 213.91 17.28H224.674C224.914 17.28 225.106 17.364 225.25 17.532C225.418 17.676 225.502 17.868 225.502 18.108V19.332C225.502 19.572 225.418 19.776 225.25 19.944C225.106 20.088 224.914 20.16 224.674 20.16H216.466V35.172C216.466 35.412 216.382 35.616 216.214 35.784C216.07 35.928 215.878 36 215.638 36H213.91ZM245.439 36.36C243.543 36.36 241.899 36.06 240.507 35.46C239.139 34.836 238.095 34.032 237.375 33.048C236.679 32.064 236.307 31.032 236.259 29.952C236.259 29.736 236.331 29.568 236.475 29.448C236.619 29.304 236.799 29.232 237.015 29.232H238.779C239.283 29.232 239.619 29.496 239.787 30.024C240.099 31.224 240.771 32.076 241.803 32.58C242.835 33.06 244.047 33.3 245.439 33.3C247.143 33.3 248.499 32.904 249.507 32.112C250.515 31.296 251.019 30.132 251.019 28.62C251.019 25.716 249.255 24.264 245.727 24.264H242.307C242.067 24.264 241.863 24.192 241.695 24.048C241.551 23.88 241.479 23.676 241.479 23.436V22.464C241.479 22.128 241.611 21.804 241.875 21.492L248.859 13.86H238.239C237.999 13.86 237.795 13.788 237.627 13.644C237.483 13.476 237.411 13.272 237.411 13.032V11.664C237.411 11.424 237.483 11.22 237.627 11.052C237.795 10.884 237.999 10.8 238.239 10.8H252.603C252.867 10.8 253.071 10.884 253.215 11.052C253.383 11.196 253.467 11.4 253.467 11.664V12.96C253.467 13.248 253.335 13.524 253.071 13.788L246.123 21.528L246.699 21.564C249.147 21.636 251.079 22.272 252.495 23.472C253.911 24.672 254.619 26.424 254.619 28.728C254.619 30.288 254.223 31.644 253.431 32.796C252.639 33.948 251.547 34.836 250.155 35.46C248.763 36.06 247.191 36.36 245.439 36.36ZM259.644 23.4C259.404 23.4 259.2 23.328 259.032 23.184C258.888 23.016 258.816 22.812 258.816 22.572V20.052C258.816 19.812 258.888 19.62 259.032 19.476C259.2 19.308 259.404 19.224 259.644 19.224H262.236C262.476 19.224 262.668 19.308 262.812 19.476C262.98 19.62 263.064 19.812 263.064 20.052V22.572C263.064 22.812 262.98 23.016 262.812 23.184C262.668 23.328 262.476 23.4 262.236 23.4H259.644ZM259.644 36C259.404 36 259.2 35.928 259.032 35.784C258.888 35.616 258.816 35.412 258.816 35.172V32.652C258.816 32.412 258.888 32.22 259.032 32.076C259.2 31.908 259.404 31.824 259.644 31.824H262.236C262.476 31.824 262.668 31.908 262.812 32.076C262.98 32.22 263.064 32.412 263.064 32.652V35.172C263.064 35.412 262.98 35.616 262.812 35.784C262.668 35.928 262.476 36 262.236 36H259.644ZM292.655 34.956C292.775 35.1 292.835 35.256 292.835 35.424C292.835 35.592 292.763 35.736 292.619 35.856C292.499 35.952 292.331 36 292.115 36H289.919C289.535 36 289.223 35.82 288.983 35.46L283.763 27.936H280.379V35.172C280.379 35.412 280.295 35.616 280.127 35.784C279.983 35.928 279.791 36 279.551 36H277.859C277.619 36 277.415 35.928 277.247 35.784C277.103 35.616 277.031 35.412 277.031 35.172V18.108C277.031 17.868 277.103 17.676 277.247 17.532C277.415 17.364 277.619 17.28 277.859 17.28H279.551C279.791 17.28 279.983 17.364 280.127 17.532C280.295 17.676 280.379 17.868 280.379 18.108V25.02H283.691L288.515 17.82C288.803 17.46 289.127 17.28 289.487 17.28H291.359C291.575 17.28 291.755 17.34 291.899 17.46C292.043 17.556 292.115 17.688 292.115 17.856C292.115 17.976 292.055 18.12 291.935 18.288L286.571 26.244L292.655 34.956ZM301.552 36.36C300.376 36.36 299.284 36.12 298.276 35.64C297.268 35.16 296.464 34.512 295.864 33.696C295.288 32.856 295 31.932 295 30.924C295 29.34 295.648 28.044 296.944 27.036C298.264 26.004 300.04 25.332 302.272 25.02L307.636 24.264V23.22C307.636 20.772 306.232 19.548 303.424 19.548C302.368 19.548 301.504 19.776 300.832 20.232C300.16 20.664 299.656 21.18 299.32 21.78C299.248 21.996 299.152 22.152 299.032 22.248C298.936 22.344 298.792 22.392 298.6 22.392H297.052C296.836 22.392 296.644 22.32 296.476 22.176C296.332 22.008 296.26 21.816 296.26 21.6C296.284 21.024 296.548 20.376 297.052 19.656C297.58 18.912 298.384 18.276 299.464 17.748C300.544 17.196 301.876 16.92 303.46 16.92C306.148 16.92 308.08 17.556 309.256 18.828C310.432 20.076 311.02 21.636 311.02 23.508V35.172C311.02 35.412 310.936 35.616 310.768 35.784C310.624 35.928 310.432 36 310.192 36H308.536C308.296 36 308.092 35.928 307.924 35.784C307.78 35.616 307.708 35.412 307.708 35.172V33.624C307.18 34.392 306.412 35.04 305.404 35.568C304.396 36.096 303.112 36.36 301.552 36.36ZM302.308 33.66C303.868 33.66 305.14 33.156 306.124 32.148C307.132 31.116 307.636 29.64 307.636 27.72V26.712L303.46 27.324C301.756 27.564 300.472 27.972 299.608 28.548C298.744 29.1 298.312 29.808 298.312 30.672C298.312 31.632 298.708 32.376 299.5 32.904C300.292 33.408 301.228 33.66 302.308 33.66ZM328.003 36C327.763 36 327.559 35.928 327.391 35.784C327.247 35.616 327.175 35.412 327.175 35.172V28.404C325.951 29.556 324.115 30.132 321.667 30.132C319.483 30.132 317.827 29.652 316.699 28.692C315.571 27.732 315.007 26.232 315.007 24.192V18.108C315.007 17.868 315.079 17.676 315.223 17.532C315.391 17.364 315.595 17.28 315.835 17.28H317.599C317.839 17.28 318.031 17.364 318.175 17.532C318.343 17.676 318.427 17.868 318.427 18.108V23.976C318.427 25.056 318.739 25.848 319.363 26.352C319.987 26.832 320.971 27.072 322.315 27.072C323.875 27.072 325.075 26.88 325.915 26.496C326.755 26.112 327.175 25.464 327.175 24.552V18.108C327.175 17.868 327.247 17.676 327.391 17.532C327.559 17.364 327.763 17.28 328.003 17.28H329.803C330.043 17.28 330.235 17.364 330.379 17.532C330.547 17.676 330.631 17.868 330.631 18.108V35.172C330.631 35.412 330.547 35.616 330.379 35.784C330.235 35.928 330.043 36 329.803 36H328.003ZM343.476 36.36C341.004 36.36 339.024 35.604 337.536 34.092C336.072 32.556 335.268 30.468 335.124 27.828L335.088 26.604L335.124 25.416C335.292 22.824 336.108 20.76 337.572 19.224C339.06 17.688 341.016 16.92 343.44 16.92C346.104 16.92 348.168 17.772 349.632 19.476C351.096 21.156 351.828 23.436 351.828 26.316V26.928C351.828 27.168 351.744 27.372 351.576 27.54C351.432 27.684 351.24 27.756 351 27.756H338.544V28.08C338.616 29.64 339.084 30.972 339.948 32.076C340.836 33.156 342 33.696 343.44 33.696C344.544 33.696 345.444 33.48 346.14 33.048C346.86 32.592 347.388 32.124 347.724 31.644C347.94 31.356 348.096 31.188 348.192 31.14C348.312 31.068 348.516 31.032 348.804 31.032H350.568C350.784 31.032 350.964 31.092 351.108 31.212C351.252 31.332 351.324 31.5 351.324 31.716C351.324 32.244 350.988 32.88 350.316 33.624C349.668 34.368 348.744 35.016 347.544 35.568C346.368 36.096 345.012 36.36 343.476 36.36ZM348.408 25.272V25.164C348.408 23.508 347.952 22.164 347.04 21.132C346.152 20.076 344.952 19.548 343.44 19.548C341.928 19.548 340.728 20.076 339.84 21.132C338.976 22.164 338.544 23.508 338.544 25.164V25.272H348.408ZM363.693 36.36C361.125 36.36 359.109 35.64 357.645 34.2C356.205 32.736 355.437 30.696 355.341 28.08L355.305 26.64L355.341 25.2C355.437 22.584 356.205 20.556 357.645 19.116C359.109 17.652 361.125 16.92 363.693 16.92C365.421 16.92 366.885 17.232 368.085 17.856C369.285 18.48 370.173 19.248 370.749 20.16C371.349 21.072 371.673 21.984 371.721 22.896C371.745 23.136 371.673 23.328 371.505 23.472C371.337 23.616 371.133 23.688 370.893 23.688H369.165C368.925 23.688 368.745 23.64 368.625 23.544C368.505 23.448 368.385 23.256 368.265 22.968C367.857 21.816 367.281 21 366.537 20.52C365.793 20.016 364.857 19.764 363.729 19.764C362.241 19.764 361.053 20.232 360.165 21.168C359.301 22.08 358.833 23.484 358.761 25.38L358.725 26.676L358.761 27.9C358.833 29.82 359.301 31.236 360.165 32.148C361.029 33.06 362.217 33.516 363.729 33.516C364.857 33.516 365.793 33.276 366.537 32.796C367.281 32.292 367.857 31.464 368.265 30.312C368.385 30.024 368.505 29.832 368.625 29.736C368.745 29.616 368.925 29.556 369.165 29.556H370.893C371.133 29.556 371.337 29.64 371.505 29.808C371.673 29.952 371.745 30.144 371.721 30.384C371.673 31.272 371.349 32.184 370.749 33.12C370.173 34.032 369.285 34.8 368.085 35.424C366.909 36.048 365.445 36.36 363.693 36.36ZM381.72 36C381.48 36 381.276 35.928 381.108 35.784C380.964 35.616 380.892 35.412 380.892 35.172V20.16H374.628C374.388 20.16 374.184 20.088 374.016 19.944C373.872 19.776 373.8 19.572 373.8 19.332V18.108C373.8 17.868 373.872 17.676 374.016 17.532C374.184 17.364 374.388 17.28 374.628 17.28H390.468C390.708 17.28 390.9 17.364 391.044 17.532C391.212 17.676 391.296 17.868 391.296 18.108V19.332C391.296 19.572 391.212 19.776 391.044 19.944C390.9 20.088 390.708 20.16 390.468 20.16H384.204V35.172C384.204 35.412 384.132 35.616 383.988 35.784C383.844 35.928 383.652 36 383.412 36H381.72ZM395.246 36C395.006 36 394.802 35.928 394.634 35.784C394.49 35.616 394.418 35.412 394.418 35.172V18.108C394.418 17.868 394.49 17.676 394.634 17.532C394.802 17.364 395.006 17.28 395.246 17.28H402.734C404.942 17.28 406.622 17.736 407.774 18.648C408.95 19.536 409.538 20.76 409.538 22.32C409.538 23.352 409.346 24.156 408.962 24.732C408.578 25.284 407.99 25.764 407.198 26.172C408.062 26.532 408.734 27.132 409.214 27.972C409.718 28.812 409.97 29.712 409.97 30.672C409.97 32.4 409.358 33.72 408.134 34.632C406.934 35.544 405.23 36 403.022 36H395.246ZM402.518 25.236C403.694 25.236 404.618 24.984 405.29 24.48C405.962 23.976 406.298 23.268 406.298 22.356C406.298 21.468 405.974 20.844 405.326 20.484C404.678 20.1 403.742 19.908 402.518 19.908H397.73V25.236H402.518ZM402.734 33.372C403.934 33.372 404.87 33.144 405.542 32.688C406.238 32.232 406.586 31.56 406.586 30.672C406.586 29.712 406.274 29.016 405.65 28.584C405.026 28.128 404.054 27.9 402.734 27.9H397.73V33.372H402.734ZM422.266 36.36C419.626 36.36 417.574 35.616 416.11 34.128C414.67 32.64 413.902 30.66 413.806 28.188L413.77 26.64L413.806 25.092C413.902 22.644 414.682 20.676 416.146 19.188C417.61 17.676 419.65 16.92 422.266 16.92C424.882 16.92 426.922 17.676 428.386 19.188C429.85 20.676 430.63 22.644 430.726 25.092C430.75 25.356 430.762 25.872 430.762 26.64C430.762 27.408 430.75 27.924 430.726 28.188C430.63 30.66 429.85 32.64 428.386 34.128C426.946 35.616 424.906 36.36 422.266 36.36ZM422.266 33.588C423.778 33.588 424.966 33.108 425.83 32.148C426.718 31.188 427.198 29.808 427.27 28.008C427.294 27.768 427.306 27.312 427.306 26.64C427.306 25.968 427.294 25.512 427.27 25.272C427.198 23.472 426.718 22.092 425.83 21.132C424.966 20.172 423.778 19.692 422.266 19.692C420.754 19.692 419.554 20.172 418.666 21.132C417.778 22.092 417.31 23.472 417.262 25.272L417.226 26.64L417.262 28.008C417.31 29.808 417.778 31.188 418.666 32.148C419.554 33.108 420.754 33.588 422.266 33.588ZM450.61 36.36C448.858 36.36 447.406 36.084 446.254 35.532C445.126 34.98 444.298 34.308 443.77 33.516C443.266 32.724 443.002 31.944 442.978 31.176V31.104C442.978 30.912 443.05 30.756 443.194 30.636C443.338 30.516 443.506 30.456 443.698 30.456H445.39C445.822 30.456 446.11 30.684 446.254 31.14C446.518 32.052 447.034 32.7 447.802 33.084C448.594 33.444 449.626 33.624 450.898 33.624C452.122 33.624 453.13 33.372 453.922 32.868C454.714 32.364 455.11 31.62 455.11 30.636C455.11 29.628 454.822 28.884 454.246 28.404C453.694 27.9 452.83 27.648 451.654 27.648H449.674C449.458 27.648 449.278 27.576 449.134 27.432C448.99 27.288 448.918 27.096 448.918 26.856V25.884C448.918 25.644 448.99 25.452 449.134 25.308C449.278 25.164 449.458 25.092 449.674 25.092H451.438C453.478 25.092 454.498 24.288 454.498 22.68C454.498 21.816 454.186 21.096 453.562 20.52C452.962 19.944 451.978 19.656 450.61 19.656C449.29 19.656 448.33 19.884 447.73 20.34C447.154 20.772 446.734 21.468 446.47 22.428C446.374 22.668 446.254 22.848 446.11 22.968C445.99 23.064 445.81 23.112 445.57 23.112H443.95C443.734 23.112 443.554 23.052 443.41 22.932C443.266 22.788 443.194 22.62 443.194 22.428C443.218 21.444 443.506 20.532 444.058 19.692C444.61 18.852 445.438 18.18 446.542 17.676C447.646 17.172 449.002 16.92 450.61 16.92C452.29 16.92 453.67 17.184 454.75 17.712C455.83 18.24 456.61 18.9 457.09 19.692C457.57 20.484 457.81 21.312 457.81 22.176C457.81 23.16 457.642 23.964 457.306 24.588C456.994 25.188 456.418 25.692 455.578 26.1C456.61 26.484 457.342 27.084 457.774 27.9C458.23 28.716 458.458 29.712 458.458 30.888C458.458 32.64 457.738 33.996 456.298 34.956C454.858 35.892 452.962 36.36 450.61 36.36ZM467.736 36.36C466.56 36.36 465.468 36.12 464.46 35.64C463.452 35.16 462.648 34.512 462.048 33.696C461.472 32.856 461.184 31.932 461.184 30.924C461.184 29.34 461.832 28.044 463.128 27.036C464.448 26.004 466.224 25.332 468.456 25.02L473.82 24.264V23.22C473.82 20.772 472.416 19.548 469.608 19.548C468.552 19.548 467.688 19.776 467.016 20.232C466.344 20.664 465.84 21.18 465.504 21.78C465.432 21.996 465.336 22.152 465.216 22.248C465.12 22.344 464.976 22.392 464.784 22.392H463.236C463.02 22.392 462.828 22.32 462.66 22.176C462.516 22.008 462.444 21.816 462.444 21.6C462.468 21.024 462.732 20.376 463.236 19.656C463.764 18.912 464.568 18.276 465.648 17.748C466.728 17.196 468.06 16.92 469.644 16.92C472.332 16.92 474.264 17.556 475.44 18.828C476.616 20.076 477.204 21.636 477.204 23.508V35.172C477.204 35.412 477.12 35.616 476.952 35.784C476.808 35.928 476.616 36 476.376 36H474.72C474.48 36 474.276 35.928 474.108 35.784C473.964 35.616 473.892 35.412 473.892 35.172V33.624C473.364 34.392 472.596 35.04 471.588 35.568C470.58 36.096 469.296 36.36 467.736 36.36ZM468.492 33.66C470.052 33.66 471.324 33.156 472.308 32.148C473.316 31.116 473.82 29.64 473.82 27.72V26.712L469.644 27.324C467.94 27.564 466.656 27.972 465.792 28.548C464.928 29.1 464.496 29.808 464.496 30.672C464.496 31.632 464.892 32.376 465.684 32.904C466.476 33.408 467.412 33.66 468.492 33.66ZM483.207 36C482.967 36 482.763 35.928 482.595 35.784C482.451 35.616 482.379 35.412 482.379 35.172V18.108C482.379 17.868 482.451 17.676 482.595 17.532C482.763 17.364 482.967 17.28 483.207 17.28H493.971C494.211 17.28 494.403 17.364 494.547 17.532C494.715 17.676 494.799 17.868 494.799 18.108V19.332C494.799 19.572 494.715 19.776 494.547 19.944C494.403 20.088 494.211 20.16 493.971 20.16H485.763V35.172C485.763 35.412 485.679 35.616 485.511 35.784C485.367 35.928 485.175 36 484.935 36H483.207ZM498.712 42.84C498.472 42.84 498.268 42.756 498.1 42.588C497.956 42.444 497.884 42.252 497.884 42.012V18.108C497.884 17.868 497.956 17.676 498.1 17.532C498.268 17.364 498.472 17.28 498.712 17.28H500.368C500.608 17.28 500.8 17.364 500.944 17.532C501.112 17.676 501.196 17.868 501.196 18.108V19.692C502.54 17.844 504.508 16.92 507.1 16.92C509.62 16.92 511.504 17.712 512.752 19.296C514.024 20.88 514.708 22.92 514.804 25.416C514.828 25.68 514.84 26.088 514.84 26.64C514.84 27.192 514.828 27.6 514.804 27.864C514.708 30.336 514.024 32.376 512.752 33.984C511.48 35.568 509.596 36.36 507.1 36.36C504.604 36.36 502.66 35.46 501.268 33.66V42.012C501.268 42.252 501.196 42.444 501.052 42.588C500.908 42.756 500.716 42.84 500.476 42.84H498.712ZM506.344 33.444C508.048 33.444 509.284 32.916 510.052 31.86C510.844 30.804 511.276 29.412 511.348 27.684C511.372 27.444 511.384 27.096 511.384 26.64C511.384 22.104 509.704 19.836 506.344 19.836C504.688 19.836 503.44 20.388 502.6 21.492C501.784 22.572 501.34 23.868 501.268 25.38L501.232 26.748L501.268 28.152C501.316 29.568 501.772 30.804 502.636 31.86C503.5 32.916 504.736 33.444 506.344 33.444ZM533.962 17.28C534.154 17.28 534.322 17.352 534.466 17.496C534.61 17.64 534.682 17.808 534.682 18C534.682 18.168 534.622 18.384 534.502 18.648L527.662 34.848L527.338 35.568C526.714 37.08 526.138 38.328 525.61 39.312C525.082 40.296 524.422 41.124 523.63 41.796C522.838 42.492 521.902 42.84 520.822 42.84H519.454C519.214 42.84 519.01 42.768 518.842 42.624C518.698 42.48 518.626 42.276 518.626 42.012V40.788C518.626 40.548 518.698 40.344 518.842 40.176C519.01 40.032 519.214 39.96 519.454 39.96H520.39C520.918 39.96 521.35 39.852 521.686 39.636C522.022 39.444 522.322 39.108 522.586 38.628C522.874 38.148 523.222 37.416 523.63 36.432L524.242 34.956L517.186 18.648C517.066 18.336 517.006 18.132 517.006 18.036C517.03 17.82 517.114 17.64 517.258 17.496C517.402 17.352 517.57 17.28 517.762 17.28H519.454C519.862 17.28 520.162 17.484 520.354 17.892L525.862 31.104L531.442 17.892C531.61 17.484 531.91 17.28 532.342 17.28H533.962ZM563.404 34.956C563.5 35.124 563.548 35.28 563.548 35.424C563.548 35.808 563.308 36 562.828 36H560.668C560.284 36 559.96 35.82 559.696 35.46L554.476 27.9H551.704V35.172C551.704 35.412 551.62 35.616 551.452 35.784C551.308 35.928 551.116 36 550.876 36H549.22C548.98 36 548.776 35.928 548.608 35.784C548.464 35.616 548.392 35.412 548.392 35.172V27.9H545.584L540.364 35.46C540.1 35.82 539.776 36 539.392 36H537.196C536.98 36 536.8 35.952 536.656 35.856C536.536 35.736 536.476 35.592 536.476 35.424C536.476 35.304 536.536 35.148 536.656 34.956L542.812 26.208L537.376 18.288C537.28 18.168 537.232 18.024 537.232 17.856C537.232 17.688 537.292 17.556 537.412 17.46C537.556 17.34 537.736 17.28 537.952 17.28H539.824C540.184 17.28 540.508 17.46 540.796 17.82L545.62 25.02H548.392V18.108C548.392 17.868 548.464 17.676 548.608 17.532C548.776 17.364 548.98 17.28 549.22 17.28H550.876C551.116 17.28 551.308 17.364 551.452 17.532C551.62 17.676 551.704 17.868 551.704 18.108V25.02H554.368L559.264 17.82C559.504 17.46 559.816 17.28 560.2 17.28H562.108C562.324 17.28 562.492 17.34 562.612 17.46C562.756 17.556 562.828 17.688 562.828 17.856C562.828 17.976 562.768 18.12 562.648 18.288L557.248 26.208L563.404 34.956ZM574.558 36.36C572.086 36.36 570.106 35.604 568.618 34.092C567.154 32.556 566.35 30.468 566.206 27.828L566.17 26.604L566.206 25.416C566.374 22.824 567.19 20.76 568.654 19.224C570.142 17.688 572.098 16.92 574.522 16.92C577.186 16.92 579.25 17.772 580.714 19.476C582.178 21.156 582.91 23.436 582.91 26.316V26.928C582.91 27.168 582.826 27.372 582.658 27.54C582.514 27.684 582.322 27.756 582.082 27.756H569.626V28.08C569.698 29.64 570.166 30.972 571.03 32.076C571.918 33.156 573.082 33.696 574.522 33.696C575.626 33.696 576.526 33.48 577.222 33.048C577.942 32.592 578.47 32.124 578.806 31.644C579.022 31.356 579.178 31.188 579.274 31.14C579.394 31.068 579.598 31.032 579.886 31.032H581.65C581.866 31.032 582.046 31.092 582.19 31.212C582.334 31.332 582.406 31.5 582.406 31.716C582.406 32.244 582.07 32.88 581.398 33.624C580.75 34.368 579.826 35.016 578.626 35.568C577.45 36.096 576.094 36.36 574.558 36.36ZM579.49 25.272V25.164C579.49 23.508 579.034 22.164 578.122 21.132C577.234 20.076 576.034 19.548 574.522 19.548C573.01 19.548 571.81 20.076 570.922 21.132C570.058 22.164 569.626 23.508 569.626 25.164V25.272H579.49ZM588.043 36C587.803 36 587.599 35.928 587.431 35.784C587.287 35.616 587.215 35.412 587.215 35.172V18.108C587.215 17.868 587.287 17.676 587.431 17.532C587.599 17.364 587.803 17.28 588.043 17.28H589.771C590.011 17.28 590.203 17.364 590.347 17.532C590.515 17.676 590.599 17.868 590.599 18.108V25.02H600.391V18.108C600.391 17.868 600.463 17.676 600.607 17.532C600.775 17.364 600.979 17.28 601.219 17.28H602.911C603.151 17.28 603.343 17.364 603.487 17.532C603.655 17.676 603.739 17.868 603.739 18.108V35.172C603.739 35.412 603.655 35.616 603.487 35.784C603.343 35.928 603.151 36 602.911 36H601.219C600.979 36 600.775 35.928 600.607 35.784C600.463 35.616 600.391 35.412 600.391 35.172V27.9H590.599V35.172C590.599 35.412 590.515 35.616 590.347 35.784C590.203 35.928 590.011 36 589.771 36H588.043ZM609.98 36C609.74 36 609.536 35.928 609.368 35.784C609.224 35.616 609.152 35.412 609.152 35.172V18.108C609.152 17.868 609.224 17.676 609.368 17.532C609.536 17.364 609.74 17.28 609.98 17.28H611.708C611.948 17.28 612.14 17.364 612.284 17.532C612.452 17.676 612.536 17.868 612.536 18.108V25.02H622.328V18.108C622.328 17.868 622.4 17.676 622.544 17.532C622.712 17.364 622.916 17.28 623.156 17.28H624.848C625.088 17.28 625.28 17.364 625.424 17.532C625.592 17.676 625.676 17.868 625.676 18.108V35.172C625.676 35.412 625.592 35.616 625.424 35.784C625.28 35.928 625.088 36 624.848 36H623.156C622.916 36 622.712 35.928 622.544 35.784C622.4 35.616 622.328 35.412 622.328 35.172V27.9H612.536V35.172C612.536 35.412 612.452 35.616 612.284 35.784C612.14 35.928 611.948 36 611.708 36H609.98ZM638.758 36.36C636.118 36.36 634.066 35.616 632.602 34.128C631.162 32.64 630.394 30.66 630.298 28.188L630.262 26.64L630.298 25.092C630.394 22.644 631.174 20.676 632.638 19.188C634.102 17.676 636.142 16.92 638.758 16.92C641.374 16.92 643.414 17.676 644.878 19.188C646.342 20.676 647.122 22.644 647.218 25.092C647.242 25.356 647.254 25.872 647.254 26.64C647.254 27.408 647.242 27.924 647.218 28.188C647.122 30.66 646.342 32.64 644.878 34.128C643.438 35.616 641.398 36.36 638.758 36.36ZM638.758 33.588C640.27 33.588 641.458 33.108 642.322 32.148C643.21 31.188 643.69 29.808 643.762 28.008C643.786 27.768 643.798 27.312 643.798 26.64C643.798 25.968 643.786 25.512 643.762 25.272C643.69 23.472 643.21 22.092 642.322 21.132C641.458 20.172 640.27 19.692 638.758 19.692C637.246 19.692 636.046 20.172 635.158 21.132C634.27 22.092 633.802 23.472 633.754 25.272L633.718 26.64L633.754 28.008C633.802 29.808 634.27 31.188 635.158 32.148C636.046 33.108 637.246 33.588 638.758 33.588ZM667.674 17.28C667.866 17.28 668.034 17.352 668.178 17.496C668.346 17.64 668.43 17.808 668.43 18V35.172C668.43 35.412 668.346 35.616 668.178 35.784C668.034 35.928 667.842 36 667.602 36H665.91C665.67 36 665.466 35.928 665.298 35.784C665.154 35.616 665.082 35.412 665.082 35.172V22.104L655.11 35.46C654.846 35.82 654.534 36 654.174 36H652.554C652.338 36 652.146 35.928 651.978 35.784C651.834 35.616 651.762 35.436 651.762 35.244V18.108C651.762 17.868 651.834 17.676 651.978 17.532C652.146 17.364 652.35 17.28 652.59 17.28H654.318C654.558 17.28 654.75 17.364 654.894 17.532C655.062 17.676 655.146 17.868 655.146 18.108V31.104L665.082 17.82C665.346 17.46 665.658 17.28 666.018 17.28H667.674ZM660.186 14.796C658.266 14.796 656.886 14.376 656.046 13.536C655.206 12.696 654.786 11.616 654.786 10.296C654.786 10.104 654.846 9.948 654.966 9.828C655.086 9.684 655.254 9.612 655.47 9.612H656.694C656.91 9.612 657.078 9.684 657.198 9.828C657.318 9.948 657.378 10.104 657.378 10.296C657.378 11.808 658.314 12.564 660.186 12.564C662.058 12.564 662.994 11.808 662.994 10.296C662.994 10.104 663.054 9.948 663.174 9.828C663.294 9.684 663.462 9.612 663.678 9.612H664.938C665.154 9.612 665.322 9.684 665.442 9.828C665.562 9.948 665.622 10.104 665.622 10.296C665.622 11.592 665.19 12.672 664.326 13.536C663.486 14.376 662.106 14.796 660.186 14.796ZM683.387 42.84C683.147 42.84 682.943 42.756 682.775 42.588C682.631 42.444 682.559 42.252 682.559 42.012V18.108C682.559 17.868 682.631 17.676 682.775 17.532C682.943 17.364 683.147 17.28 683.387 17.28H685.043C685.283 17.28 685.475 17.364 685.619 17.532C685.787 17.676 685.871 17.868 685.871 18.108V19.692C687.215 17.844 689.183 16.92 691.775 16.92C694.295 16.92 696.179 17.712 697.427 19.296C698.699 20.88 699.383 22.92 699.479 25.416C699.503 25.68 699.515 26.088 699.515 26.64C699.515 27.192 699.503 27.6 699.479 27.864C699.383 30.336 698.699 32.376 697.427 33.984C696.155 35.568 694.271 36.36 691.775 36.36C689.279 36.36 687.335 35.46 685.943 33.66V42.012C685.943 42.252 685.871 42.444 685.727 42.588C685.583 42.756 685.391 42.84 685.151 42.84H683.387ZM691.019 33.444C692.723 33.444 693.959 32.916 694.727 31.86C695.519 30.804 695.951 29.412 696.023 27.684C696.047 27.444 696.059 27.096 696.059 26.64C696.059 22.104 694.379 19.836 691.019 19.836C689.363 19.836 688.115 20.388 687.275 21.492C686.459 22.572 686.015 23.868 685.943 25.38L685.907 26.748L685.943 28.152C685.991 29.568 686.447 30.804 687.311 31.86C688.175 32.916 689.411 33.444 691.019 33.444ZM709.189 36.36C708.013 36.36 706.921 36.12 705.913 35.64C704.905 35.16 704.101 34.512 703.501 33.696C702.925 32.856 702.637 31.932 702.637 30.924C702.637 29.34 703.285 28.044 704.581 27.036C705.901 26.004 707.677 25.332 709.909 25.02L715.273 24.264V23.22C715.273 20.772 713.869 19.548 711.061 19.548C710.005 19.548 709.141 19.776 708.469 20.232C707.797 20.664 707.293 21.18 706.957 21.78C706.885 21.996 706.789 22.152 706.669 22.248C706.573 22.344 706.429 22.392 706.237 22.392H704.689C704.473 22.392 704.281 22.32 704.113 22.176C703.969 22.008 703.897 21.816 703.897 21.6C703.921 21.024 704.185 20.376 704.689 19.656C705.217 18.912 706.021 18.276 707.101 17.748C708.181 17.196 709.513 16.92 711.097 16.92C713.785 16.92 715.717 17.556 716.893 18.828C718.069 20.076 718.657 21.636 718.657 23.508V35.172C718.657 35.412 718.573 35.616 718.405 35.784C718.261 35.928 718.069 36 717.829 36H716.173C715.933 36 715.729 35.928 715.561 35.784C715.417 35.616 715.345 35.412 715.345 35.172V33.624C714.817 34.392 714.049 35.04 713.041 35.568C712.033 36.096 710.749 36.36 709.189 36.36ZM709.945 33.66C711.505 33.66 712.777 33.156 713.761 32.148C714.769 31.116 715.273 29.64 715.273 27.72V26.712L711.097 27.324C709.393 27.564 708.109 27.972 707.245 28.548C706.381 29.1 705.949 29.808 705.949 30.672C705.949 31.632 706.345 32.376 707.137 32.904C707.929 33.408 708.865 33.66 709.945 33.66ZM730.348 36.36C728.596 36.36 727.144 36.084 725.992 35.532C724.864 34.98 724.036 34.308 723.508 33.516C723.004 32.724 722.74 31.944 722.716 31.176V31.104C722.716 30.912 722.788 30.756 722.932 30.636C723.076 30.516 723.244 30.456 723.436 30.456H725.128C725.56 30.456 725.848 30.684 725.992 31.14C726.256 32.052 726.772 32.7 727.54 33.084C728.332 33.444 729.364 33.624 730.636 33.624C731.86 33.624 732.868 33.372 733.66 32.868C734.452 32.364 734.848 31.62 734.848 30.636C734.848 29.628 734.56 28.884 733.984 28.404C733.432 27.9 732.568 27.648 731.392 27.648H729.412C729.196 27.648 729.016 27.576 728.872 27.432C728.728 27.288 728.656 27.096 728.656 26.856V25.884C728.656 25.644 728.728 25.452 728.872 25.308C729.016 25.164 729.196 25.092 729.412 25.092H731.176C733.216 25.092 734.236 24.288 734.236 22.68C734.236 21.816 733.924 21.096 733.3 20.52C732.7 19.944 731.716 19.656 730.348 19.656C729.028 19.656 728.068 19.884 727.468 20.34C726.892 20.772 726.472 21.468 726.208 22.428C726.112 22.668 725.992 22.848 725.848 22.968C725.728 23.064 725.548 23.112 725.308 23.112H723.688C723.472 23.112 723.292 23.052 723.148 22.932C723.004 22.788 722.932 22.62 722.932 22.428C722.956 21.444 723.244 20.532 723.796 19.692C724.348 18.852 725.176 18.18 726.28 17.676C727.384 17.172 728.74 16.92 730.348 16.92C732.028 16.92 733.408 17.184 734.488 17.712C735.568 18.24 736.348 18.9 736.828 19.692C737.308 20.484 737.548 21.312 737.548 22.176C737.548 23.16 737.38 23.964 737.044 24.588C736.732 25.188 736.156 25.692 735.316 26.1C736.348 26.484 737.08 27.084 737.512 27.9C737.968 28.716 738.196 29.712 738.196 30.888C738.196 32.64 737.476 33.996 736.036 34.956C734.596 35.892 732.7 36.36 730.348 36.36ZM760.686 17.28C760.878 17.28 761.046 17.352 761.19 17.496C761.334 17.616 761.406 17.772 761.406 17.964V35.208C761.406 35.448 761.334 35.64 761.19 35.784C761.046 35.928 760.866 36 760.65 36H758.886C758.646 36 758.454 35.928 758.31 35.784C758.166 35.64 758.094 35.448 758.094 35.208V23.364L753.486 32.076C753.318 32.388 753.15 32.628 752.982 32.796C752.838 32.94 752.61 33.012 752.298 33.012H751.362C751.074 33.012 750.846 32.94 750.678 32.796C750.534 32.652 750.366 32.412 750.174 32.076L745.602 23.58V35.208C745.602 35.448 745.53 35.64 745.386 35.784C745.242 35.928 745.05 36 744.81 36H743.046C742.806 36 742.614 35.928 742.47 35.784C742.326 35.64 742.254 35.448 742.254 35.208V17.964C742.254 17.796 742.326 17.64 742.47 17.496C742.614 17.352 742.782 17.28 742.974 17.28H744.81C745.17 17.28 745.47 17.472 745.71 17.856L751.83 29.304L757.986 17.856C758.178 17.472 758.478 17.28 758.886 17.28H760.686ZM774.281 36.36C771.809 36.36 769.829 35.604 768.341 34.092C766.877 32.556 766.073 30.468 765.929 27.828L765.893 26.604L765.929 25.416C766.097 22.824 766.913 20.76 768.377 19.224C769.865 17.688 771.821 16.92 774.245 16.92C776.909 16.92 778.973 17.772 780.437 19.476C781.901 21.156 782.633 23.436 782.633 26.316V26.928C782.633 27.168 782.549 27.372 782.381 27.54C782.237 27.684 782.045 27.756 781.805 27.756H769.349V28.08C769.421 29.64 769.889 30.972 770.753 32.076C771.641 33.156 772.805 33.696 774.245 33.696C775.349 33.696 776.249 33.48 776.945 33.048C777.665 32.592 778.193 32.124 778.529 31.644C778.745 31.356 778.901 31.188 778.997 31.14C779.117 31.068 779.321 31.032 779.609 31.032H781.373C781.589 31.032 781.769 31.092 781.913 31.212C782.057 31.332 782.129 31.5 782.129 31.716C782.129 32.244 781.793 32.88 781.121 33.624C780.473 34.368 779.549 35.016 778.349 35.568C777.173 36.096 775.817 36.36 774.281 36.36ZM779.213 25.272V25.164C779.213 23.508 778.757 22.164 777.845 21.132C776.957 20.076 775.757 19.548 774.245 19.548C772.733 19.548 771.533 20.076 770.645 21.132C769.781 22.164 769.349 23.508 769.349 25.164V25.272H779.213ZM792.661 36C792.421 36 792.217 35.928 792.049 35.784C791.905 35.616 791.833 35.412 791.833 35.172V20.16H785.569C785.329 20.16 785.125 20.088 784.957 19.944C784.813 19.776 784.741 19.572 784.741 19.332V18.108C784.741 17.868 784.813 17.676 784.957 17.532C785.125 17.364 785.329 17.28 785.569 17.28H801.409C801.649 17.28 801.841 17.364 801.985 17.532C802.153 17.676 802.237 17.868 802.237 18.108V19.332C802.237 19.572 802.153 19.776 801.985 19.944C801.841 20.088 801.649 20.16 801.409 20.16H795.145V35.172C795.145 35.412 795.073 35.616 794.929 35.784C794.785 35.928 794.593 36 794.353 36H792.661ZM820.983 34.956C821.103 35.1 821.163 35.256 821.163 35.424C821.163 35.592 821.091 35.736 820.947 35.856C820.827 35.952 820.659 36 820.443 36H818.247C817.863 36 817.551 35.82 817.311 35.46L812.091 27.936H808.707V35.172C808.707 35.412 808.623 35.616 808.455 35.784C808.311 35.928 808.119 36 807.879 36H806.187C805.947 36 805.743 35.928 805.575 35.784C805.431 35.616 805.359 35.412 805.359 35.172V18.108C805.359 17.868 805.431 17.676 805.575 17.532C805.743 17.364 805.947 17.28 806.187 17.28H807.879C808.119 17.28 808.311 17.364 808.455 17.532C808.623 17.676 808.707 17.868 808.707 18.108V25.02H812.019L816.843 17.82C817.131 17.46 817.455 17.28 817.815 17.28H819.687C819.903 17.28 820.083 17.34 820.227 17.46C820.371 17.556 820.443 17.688 820.443 17.856C820.443 17.976 820.383 18.12 820.263 18.288L814.899 26.244L820.983 34.956ZM840.572 17.28C840.764 17.28 840.932 17.352 841.076 17.496C841.244 17.64 841.328 17.808 841.328 18V35.172C841.328 35.412 841.244 35.616 841.076 35.784C840.932 35.928 840.74 36 840.5 36H838.808C838.568 36 838.364 35.928 838.196 35.784C838.052 35.616 837.98 35.412 837.98 35.172V22.104L828.008 35.46C827.744 35.82 827.432 36 827.072 36H825.452C825.236 36 825.044 35.928 824.876 35.784C824.732 35.616 824.66 35.436 824.66 35.244V18.108C824.66 17.868 824.732 17.676 824.876 17.532C825.044 17.364 825.248 17.28 825.488 17.28H827.216C827.456 17.28 827.648 17.364 827.792 17.532C827.96 17.676 828.044 17.868 828.044 18.108V31.104L837.98 17.82C838.244 17.46 838.556 17.28 838.916 17.28H840.572Z" fill="#1DC570"/>
</svg>
