<svg width="1000" height="200" viewBox="0 0 1000 200" fill="none" xmlns="http://www.w3.org/2000/svg">
<rect width="1000" height="200" fill="white"/>
<path d="M261.497 36C261.257 36 261.053 35.928 260.885 35.784C260.741 35.616 260.669 35.412 260.669 35.172V11.628C260.669 11.364 260.741 11.16 260.885 11.016C261.053 10.872 261.257 10.8 261.497 10.8H263.333C263.573 10.8 263.777 10.884 263.945 11.052C264.113 11.196 264.197 11.388 264.197 11.628V32.76H273.017V11.628C273.017 11.388 273.089 11.196 273.233 11.052C273.401 10.884 273.605 10.8 273.845 10.8H275.681C275.921 10.8 276.125 10.884 276.293 11.052C276.461 11.196 276.545 11.388 276.545 11.628V32.76H285.365V11.628C285.365 11.388 285.437 11.196 285.581 11.052C285.749 10.884 285.953 10.8 286.193 10.8H288.029C288.293 10.8 288.497 10.884 288.641 11.052C288.809 11.196 288.893 11.388 288.893 11.628V35.172C288.893 35.412 288.809 35.616 288.641 35.784C288.497 35.928 288.293 36 288.029 36H261.497ZM299.909 36.36C298.733 36.36 297.641 36.12 296.633 35.64C295.625 35.16 294.821 34.512 294.221 33.696C293.645 32.856 293.357 31.932 293.357 30.924C293.357 29.34 294.005 28.044 295.301 27.036C296.621 26.004 298.397 25.332 300.629 25.02L305.993 24.264V23.22C305.993 20.772 304.589 19.548 301.781 19.548C300.725 19.548 299.861 19.776 299.189 20.232C298.517 20.664 298.013 21.18 297.677 21.78C297.605 21.996 297.509 22.152 297.389 22.248C297.293 22.344 297.149 22.392 296.957 22.392H295.409C295.193 22.392 295.001 22.32 294.833 22.176C294.689 22.008 294.617 21.816 294.617 21.6C294.641 21.024 294.905 20.376 295.409 19.656C295.937 18.912 296.741 18.276 297.821 17.748C298.901 17.196 300.233 16.92 301.817 16.92C304.505 16.92 306.437 17.556 307.613 18.828C308.789 20.076 309.377 21.636 309.377 23.508V35.172C309.377 35.412 309.293 35.616 309.125 35.784C308.981 35.928 308.789 36 308.549 36H306.893C306.653 36 306.449 35.928 306.281 35.784C306.137 35.616 306.065 35.412 306.065 35.172V33.624C305.537 34.392 304.769 35.04 303.761 35.568C302.753 36.096 301.469 36.36 299.909 36.36ZM300.665 33.66C302.225 33.66 303.497 33.156 304.481 32.148C305.489 31.116 305.993 29.64 305.993 27.72V26.712L301.817 27.324C300.113 27.564 298.829 27.972 297.965 28.548C297.101 29.1 296.669 29.808 296.669 30.672C296.669 31.632 297.065 32.376 297.857 32.904C298.649 33.408 299.585 33.66 300.665 33.66ZM315.381 36C315.141 36 314.937 35.928 314.769 35.784C314.625 35.616 314.553 35.412 314.553 35.172V18.108C314.553 17.868 314.625 17.676 314.769 17.532C314.937 17.364 315.141 17.28 315.381 17.28H326.145C326.385 17.28 326.577 17.364 326.721 17.532C326.889 17.676 326.973 17.868 326.973 18.108V19.332C326.973 19.572 326.889 19.776 326.721 19.944C326.577 20.088 326.385 20.16 326.145 20.16H317.937V35.172C317.937 35.412 317.853 35.616 317.685 35.784C317.541 35.928 317.349 36 317.109 36H315.381ZM338.774 36C338.534 36 338.33 35.928 338.162 35.784C338.018 35.616 337.946 35.412 337.946 35.172V34.02C337.946 33.468 338.246 32.94 338.846 32.436L346.478 24.804C348.326 23.268 349.598 22.02 350.294 21.06C350.99 20.076 351.338 19.044 351.338 17.964C351.338 16.572 350.942 15.48 350.15 14.688C349.382 13.896 348.254 13.5 346.766 13.5C345.374 13.5 344.258 13.92 343.418 14.76C342.578 15.576 342.062 16.668 341.87 18.036C341.822 18.324 341.702 18.54 341.51 18.684C341.342 18.804 341.15 18.864 340.934 18.864H339.062C338.846 18.864 338.666 18.804 338.522 18.684C338.378 18.54 338.306 18.372 338.306 18.18C338.354 16.884 338.702 15.648 339.35 14.472C339.998 13.272 340.946 12.3 342.194 11.556C343.466 10.788 344.99 10.404 346.766 10.404C349.478 10.404 351.518 11.112 352.886 12.528C354.278 13.92 354.974 15.696 354.974 17.856C354.974 19.368 354.59 20.736 353.822 21.96C353.078 23.16 351.914 24.456 350.33 25.848L343.418 32.868H354.65C354.914 32.868 355.118 32.952 355.262 33.12C355.43 33.264 355.514 33.456 355.514 33.696V35.172C355.514 35.412 355.43 35.616 355.262 35.784C355.094 35.928 354.89 36 354.65 36H338.774ZM360.623 23.4C360.383 23.4 360.179 23.328 360.011 23.184C359.867 23.016 359.795 22.812 359.795 22.572V20.052C359.795 19.812 359.867 19.62 360.011 19.476C360.179 19.308 360.383 19.224 360.623 19.224H363.215C363.455 19.224 363.647 19.308 363.791 19.476C363.959 19.62 364.043 19.812 364.043 20.052V22.572C364.043 22.812 363.959 23.016 363.791 23.184C363.647 23.328 363.455 23.4 363.215 23.4H360.623ZM360.623 36C360.383 36 360.179 35.928 360.011 35.784C359.867 35.616 359.795 35.412 359.795 35.172V32.652C359.795 32.412 359.867 32.22 360.011 32.076C360.179 31.908 360.383 31.824 360.623 31.824H363.215C363.455 31.824 363.647 31.908 363.791 32.076C363.959 32.22 364.043 32.412 364.043 32.652V35.172C364.043 35.412 363.959 35.616 363.791 35.784C363.647 35.928 363.455 36 363.215 36H360.623ZM385.678 36.36C383.038 36.36 380.986 35.616 379.522 34.128C378.082 32.64 377.314 30.66 377.218 28.188L377.182 26.64L377.218 25.092C377.314 22.644 378.094 20.676 379.558 19.188C381.022 17.676 383.062 16.92 385.678 16.92C388.294 16.92 390.334 17.676 391.798 19.188C393.262 20.676 394.042 22.644 394.138 25.092C394.162 25.356 394.174 25.872 394.174 26.64C394.174 27.408 394.162 27.924 394.138 28.188C394.042 30.66 393.262 32.64 391.798 34.128C390.358 35.616 388.318 36.36 385.678 36.36ZM385.678 33.588C387.19 33.588 388.378 33.108 389.242 32.148C390.13 31.188 390.61 29.808 390.682 28.008C390.706 27.768 390.718 27.312 390.718 26.64C390.718 25.968 390.706 25.512 390.682 25.272C390.61 23.472 390.13 22.092 389.242 21.132C388.378 20.172 387.19 19.692 385.678 19.692C384.166 19.692 382.966 20.172 382.078 21.132C381.19 22.092 380.722 23.472 380.674 25.272L380.638 26.64L380.674 28.008C380.722 29.808 381.19 31.188 382.078 32.148C382.966 33.108 384.166 33.588 385.678 33.588ZM415.062 26.208C415.086 26.448 415.098 26.832 415.098 27.36C415.098 27.816 415.086 28.14 415.062 28.332C414.966 30.756 414.186 32.7 412.722 34.164C411.282 35.628 409.242 36.36 406.602 36.36C403.89 36.36 401.826 35.592 400.41 34.056C398.994 32.52 398.238 30.408 398.142 27.72L398.106 25.56L398.142 23.4C398.166 19.968 398.622 17.4 399.51 15.696C400.422 13.968 401.706 12.732 403.362 11.988C405.042 11.22 407.754 10.344 411.498 9.36L412.362 9.144L412.542 9.108C412.734 9.108 412.902 9.18 413.046 9.324C413.214 9.444 413.31 9.588 413.334 9.756L413.622 11.232L413.658 11.448C413.658 11.616 413.598 11.76 413.478 11.88C413.382 12 413.238 12.084 413.046 12.132L411.246 12.564C408.486 13.236 406.506 13.812 405.306 14.292C404.106 14.772 403.17 15.528 402.498 16.56C401.85 17.568 401.49 19.08 401.418 21.096C401.994 20.232 402.81 19.536 403.866 19.008C404.922 18.456 406.038 18.18 407.214 18.18C409.638 18.18 411.522 18.924 412.866 20.412C414.234 21.876 414.966 23.808 415.062 26.208ZM411.606 28.188C411.63 28.02 411.642 27.744 411.642 27.36C411.642 26.928 411.63 26.604 411.606 26.388C411.558 24.636 411.102 23.28 410.238 22.32C409.398 21.336 408.294 20.844 406.926 20.844C405.39 20.844 404.13 21.336 403.146 22.32C402.186 23.28 401.67 24.636 401.598 26.388L401.562 27.36L401.598 28.188C401.67 29.964 402.15 31.332 403.038 32.292C403.926 33.228 405.114 33.696 406.602 33.696C408.114 33.696 409.314 33.228 410.202 32.292C411.09 31.332 411.558 29.964 411.606 28.188ZM420.464 42.84C420.224 42.84 420.02 42.756 419.852 42.588C419.708 42.444 419.636 42.252 419.636 42.012V18.108C419.636 17.868 419.708 17.676 419.852 17.532C420.02 17.364 420.224 17.28 420.464 17.28H422.12C422.36 17.28 422.552 17.364 422.696 17.532C422.864 17.676 422.948 17.868 422.948 18.108V19.692C424.292 17.844 426.26 16.92 428.852 16.92C431.372 16.92 433.256 17.712 434.504 19.296C435.776 20.88 436.46 22.92 436.556 25.416C436.58 25.68 436.592 26.088 436.592 26.64C436.592 27.192 436.58 27.6 436.556 27.864C436.46 30.336 435.776 32.376 434.504 33.984C433.232 35.568 431.348 36.36 428.852 36.36C426.356 36.36 424.412 35.46 423.02 33.66V42.012C423.02 42.252 422.948 42.444 422.804 42.588C422.66 42.756 422.468 42.84 422.228 42.84H420.464ZM428.096 33.444C429.8 33.444 431.036 32.916 431.804 31.86C432.596 30.804 433.028 29.412 433.1 27.684C433.124 27.444 433.136 27.096 433.136 26.64C433.136 22.104 431.456 19.836 428.096 19.836C426.44 19.836 425.192 20.388 424.352 21.492C423.536 22.572 423.092 23.868 423.02 25.38L422.984 26.748L423.02 28.152C423.068 29.568 423.524 30.804 424.388 31.86C425.252 32.916 426.488 33.444 428.096 33.444ZM446.265 36.36C445.089 36.36 443.997 36.12 442.989 35.64C441.981 35.16 441.177 34.512 440.577 33.696C440.001 32.856 439.713 31.932 439.713 30.924C439.713 29.34 440.361 28.044 441.657 27.036C442.977 26.004 444.753 25.332 446.985 25.02L452.349 24.264V23.22C452.349 20.772 450.945 19.548 448.137 19.548C447.081 19.548 446.217 19.776 445.545 20.232C444.873 20.664 444.369 21.18 444.033 21.78C443.961 21.996 443.865 22.152 443.745 22.248C443.649 22.344 443.505 22.392 443.313 22.392H441.765C441.549 22.392 441.357 22.32 441.189 22.176C441.045 22.008 440.973 21.816 440.973 21.6C440.997 21.024 441.261 20.376 441.765 19.656C442.293 18.912 443.097 18.276 444.177 17.748C445.257 17.196 446.589 16.92 448.173 16.92C450.861 16.92 452.793 17.556 453.969 18.828C455.145 20.076 455.733 21.636 455.733 23.508V35.172C455.733 35.412 455.649 35.616 455.481 35.784C455.337 35.928 455.145 36 454.905 36H453.249C453.009 36 452.805 35.928 452.637 35.784C452.493 35.616 452.421 35.412 452.421 35.172V33.624C451.893 34.392 451.125 35.04 450.117 35.568C449.109 36.096 447.825 36.36 446.265 36.36ZM447.021 33.66C448.581 33.66 449.853 33.156 450.837 32.148C451.845 31.116 452.349 29.64 452.349 27.72V26.712L448.173 27.324C446.469 27.564 445.185 27.972 444.321 28.548C443.457 29.1 443.025 29.808 443.025 30.672C443.025 31.632 443.421 32.376 444.213 32.904C445.005 33.408 445.941 33.66 447.021 33.66ZM477.288 26.208C477.312 26.448 477.324 26.832 477.324 27.36C477.324 27.816 477.312 28.14 477.288 28.332C477.192 30.756 476.412 32.7 474.948 34.164C473.508 35.628 471.468 36.36 468.828 36.36C466.116 36.36 464.052 35.592 462.636 34.056C461.22 32.52 460.464 30.408 460.368 27.72L460.332 25.56L460.368 23.4C460.392 19.968 460.848 17.4 461.736 15.696C462.648 13.968 463.932 12.732 465.588 11.988C467.268 11.22 469.98 10.344 473.724 9.36L474.588 9.144L474.768 9.108C474.96 9.108 475.128 9.18 475.272 9.324C475.44 9.444 475.536 9.588 475.56 9.756L475.848 11.232L475.884 11.448C475.884 11.616 475.824 11.76 475.704 11.88C475.608 12 475.464 12.084 475.272 12.132L473.472 12.564C470.712 13.236 468.732 13.812 467.532 14.292C466.332 14.772 465.396 15.528 464.724 16.56C464.076 17.568 463.716 19.08 463.644 21.096C464.22 20.232 465.036 19.536 466.092 19.008C467.148 18.456 468.264 18.18 469.44 18.18C471.864 18.18 473.748 18.924 475.092 20.412C476.46 21.876 477.192 23.808 477.288 26.208ZM473.832 28.188C473.856 28.02 473.868 27.744 473.868 27.36C473.868 26.928 473.856 26.604 473.832 26.388C473.784 24.636 473.328 23.28 472.464 22.32C471.624 21.336 470.52 20.844 469.152 20.844C467.616 20.844 466.356 21.336 465.372 22.32C464.412 23.28 463.896 24.636 463.824 26.388L463.788 27.36L463.824 28.188C463.896 29.964 464.376 31.332 465.264 32.292C466.152 33.228 467.34 33.696 468.828 33.696C470.34 33.696 471.54 33.228 472.428 32.292C473.316 31.332 473.784 29.964 473.832 28.188ZM489.494 36.36C486.854 36.36 484.802 35.616 483.338 34.128C481.898 32.64 481.13 30.66 481.034 28.188L480.998 26.64L481.034 25.092C481.13 22.644 481.91 20.676 483.374 19.188C484.838 17.676 486.878 16.92 489.494 16.92C492.11 16.92 494.15 17.676 495.614 19.188C497.078 20.676 497.858 22.644 497.954 25.092C497.978 25.356 497.99 25.872 497.99 26.64C497.99 27.408 497.978 27.924 497.954 28.188C497.858 30.66 497.078 32.64 495.614 34.128C494.174 35.616 492.134 36.36 489.494 36.36ZM489.494 33.588C491.006 33.588 492.194 33.108 493.058 32.148C493.946 31.188 494.426 29.808 494.498 28.008C494.522 27.768 494.534 27.312 494.534 26.64C494.534 25.968 494.522 25.512 494.498 25.272C494.426 23.472 493.946 22.092 493.058 21.132C492.194 20.172 491.006 19.692 489.494 19.692C487.982 19.692 486.782 20.172 485.894 21.132C485.006 22.092 484.538 23.472 484.49 25.272L484.454 26.64L484.49 28.008C484.538 29.808 485.006 31.188 485.894 32.148C486.782 33.108 487.982 33.588 489.494 33.588ZM508.222 36C507.982 36 507.778 35.928 507.61 35.784C507.466 35.616 507.394 35.412 507.394 35.172V20.16H501.13C500.89 20.16 500.686 20.088 500.518 19.944C500.374 19.776 500.302 19.572 500.302 19.332V18.108C500.302 17.868 500.374 17.676 500.518 17.532C500.686 17.364 500.89 17.28 501.13 17.28H516.97C517.21 17.28 517.402 17.364 517.546 17.532C517.714 17.676 517.798 17.868 517.798 18.108V19.332C517.798 19.572 517.714 19.776 517.546 19.944C517.402 20.088 517.21 20.16 516.97 20.16H510.706V35.172C510.706 35.412 510.634 35.616 510.49 35.784C510.346 35.928 510.154 36 509.914 36H508.222ZM536.544 34.956C536.664 35.1 536.724 35.256 536.724 35.424C536.724 35.592 536.652 35.736 536.508 35.856C536.388 35.952 536.22 36 536.004 36H533.808C533.424 36 533.112 35.82 532.872 35.46L527.652 27.936H524.268V35.172C524.268 35.412 524.184 35.616 524.016 35.784C523.872 35.928 523.68 36 523.44 36H521.748C521.508 36 521.304 35.928 521.136 35.784C520.992 35.616 520.92 35.412 520.92 35.172V18.108C520.92 17.868 520.992 17.676 521.136 17.532C521.304 17.364 521.508 17.28 521.748 17.28H523.44C523.68 17.28 523.872 17.364 524.016 17.532C524.184 17.676 524.268 17.868 524.268 18.108V25.02H527.58L532.404 17.82C532.692 17.46 533.016 17.28 533.376 17.28H535.248C535.464 17.28 535.644 17.34 535.788 17.46C535.932 17.556 536.004 17.688 536.004 17.856C536.004 17.976 535.944 18.12 535.824 18.288L530.46 26.244L536.544 34.956ZM545.441 36.36C544.265 36.36 543.173 36.12 542.165 35.64C541.157 35.16 540.353 34.512 539.753 33.696C539.177 32.856 538.889 31.932 538.889 30.924C538.889 29.34 539.537 28.044 540.833 27.036C542.153 26.004 543.929 25.332 546.161 25.02L551.525 24.264V23.22C551.525 20.772 550.121 19.548 547.313 19.548C546.257 19.548 545.393 19.776 544.721 20.232C544.049 20.664 543.545 21.18 543.209 21.78C543.137 21.996 543.041 22.152 542.921 22.248C542.825 22.344 542.681 22.392 542.489 22.392H540.941C540.725 22.392 540.533 22.32 540.365 22.176C540.221 22.008 540.149 21.816 540.149 21.6C540.173 21.024 540.437 20.376 540.941 19.656C541.469 18.912 542.273 18.276 543.353 17.748C544.433 17.196 545.765 16.92 547.349 16.92C550.037 16.92 551.969 17.556 553.145 18.828C554.321 20.076 554.909 21.636 554.909 23.508V35.172C554.909 35.412 554.825 35.616 554.657 35.784C554.513 35.928 554.321 36 554.081 36H552.425C552.185 36 551.981 35.928 551.813 35.784C551.669 35.616 551.597 35.412 551.597 35.172V33.624C551.069 34.392 550.301 35.04 549.293 35.568C548.285 36.096 547.001 36.36 545.441 36.36ZM546.197 33.66C547.757 33.66 549.029 33.156 550.013 32.148C551.021 31.116 551.525 29.64 551.525 27.72V26.712L547.349 27.324C545.645 27.564 544.361 27.972 543.497 28.548C542.633 29.1 542.201 29.808 542.201 30.672C542.201 31.632 542.597 32.376 543.389 32.904C544.181 33.408 545.117 33.66 546.197 33.66ZM567.828 39.96C567.588 39.96 567.384 39.876 567.216 39.708C567.072 39.564 567 39.372 567 39.132V33.948C567 33.708 567.072 33.516 567.216 33.372C567.384 33.204 567.588 33.12 567.828 33.12H568.008C569.016 33.096 569.772 32.256 570.276 30.6C570.804 28.944 571.068 26.316 571.068 22.716V18.108C571.068 17.868 571.14 17.676 571.284 17.532C571.452 17.364 571.656 17.28 571.896 17.28H583.38C583.62 17.28 583.812 17.364 583.956 17.532C584.124 17.676 584.208 17.868 584.208 18.108V33.048H585.9C586.14 33.048 586.332 33.132 586.476 33.3C586.644 33.444 586.728 33.636 586.728 33.876V39.132C586.728 39.372 586.644 39.564 586.476 39.708C586.332 39.876 586.14 39.96 585.9 39.96H584.208C583.968 39.96 583.764 39.876 583.596 39.708C583.452 39.564 583.38 39.372 583.38 39.132V36H570.348V39.132C570.348 39.372 570.264 39.564 570.096 39.708C569.952 39.876 569.76 39.96 569.52 39.96H567.828ZM580.86 33.048V20.16H574.344V23.112C574.344 27.912 573.66 31.248 572.292 33.12L580.86 33.048ZM595.714 36.36C594.538 36.36 593.446 36.12 592.438 35.64C591.43 35.16 590.626 34.512 590.026 33.696C589.45 32.856 589.162 31.932 589.162 30.924C589.162 29.34 589.81 28.044 591.106 27.036C592.426 26.004 594.202 25.332 596.434 25.02L601.798 24.264V23.22C601.798 20.772 600.394 19.548 597.586 19.548C596.53 19.548 595.666 19.776 594.994 20.232C594.322 20.664 593.818 21.18 593.482 21.78C593.41 21.996 593.314 22.152 593.194 22.248C593.098 22.344 592.954 22.392 592.762 22.392H591.214C590.998 22.392 590.806 22.32 590.638 22.176C590.494 22.008 590.422 21.816 590.422 21.6C590.446 21.024 590.71 20.376 591.214 19.656C591.742 18.912 592.546 18.276 593.626 17.748C594.706 17.196 596.038 16.92 597.622 16.92C600.31 16.92 602.242 17.556 603.418 18.828C604.594 20.076 605.182 21.636 605.182 23.508V35.172C605.182 35.412 605.098 35.616 604.93 35.784C604.786 35.928 604.594 36 604.354 36H602.698C602.458 36 602.254 35.928 602.086 35.784C601.942 35.616 601.87 35.412 601.87 35.172V33.624C601.342 34.392 600.574 35.04 599.566 35.568C598.558 36.096 597.274 36.36 595.714 36.36ZM596.47 33.66C598.03 33.66 599.302 33.156 600.286 32.148C601.294 31.116 601.798 29.64 601.798 27.72V26.712L597.622 27.324C595.918 27.564 594.634 27.972 593.77 28.548C592.906 29.1 592.474 29.808 592.474 30.672C592.474 31.632 592.87 32.376 593.662 32.904C594.454 33.408 595.39 33.66 596.47 33.66ZM611.185 36C610.945 36 610.741 35.928 610.573 35.784C610.429 35.616 610.357 35.412 610.357 35.172V18.108C610.357 17.868 610.429 17.676 610.573 17.532C610.741 17.364 610.945 17.28 611.185 17.28H612.913C613.153 17.28 613.345 17.364 613.489 17.532C613.657 17.676 613.741 17.868 613.741 18.108V25.02H623.533V18.108C623.533 17.868 623.605 17.676 623.749 17.532C623.917 17.364 624.121 17.28 624.361 17.28H626.053C626.293 17.28 626.485 17.364 626.629 17.532C626.797 17.676 626.881 17.868 626.881 18.108V35.172C626.881 35.412 626.797 35.616 626.629 35.784C626.485 35.928 626.293 36 626.053 36H624.361C624.121 36 623.917 35.928 623.749 35.784C623.605 35.616 623.533 35.412 623.533 35.172V27.9H613.741V35.172C613.741 35.412 613.657 35.616 613.489 35.784C613.345 35.928 613.153 36 612.913 36H611.185ZM633.123 36C632.883 36 632.679 35.928 632.511 35.784C632.367 35.616 632.295 35.412 632.295 35.172V18.108C632.295 17.868 632.367 17.676 632.511 17.532C632.679 17.364 632.883 17.28 633.123 17.28H634.851C635.091 17.28 635.283 17.364 635.427 17.532C635.595 17.676 635.679 17.868 635.679 18.108V25.02H645.471V18.108C645.471 17.868 645.543 17.676 645.687 17.532C645.855 17.364 646.059 17.28 646.299 17.28H647.991C648.231 17.28 648.423 17.364 648.567 17.532C648.735 17.676 648.819 17.868 648.819 18.108V35.172C648.819 35.412 648.735 35.616 648.567 35.784C648.423 35.928 648.231 36 647.991 36H646.299C646.059 36 645.855 35.928 645.687 35.784C645.543 35.616 645.471 35.412 645.471 35.172V27.9H635.679V35.172C635.679 35.412 635.595 35.616 635.427 35.784C635.283 35.928 635.091 36 634.851 36H633.123ZM655.06 36C654.82 36 654.616 35.928 654.448 35.784C654.304 35.616 654.232 35.412 654.232 35.172V18.108C654.232 17.868 654.304 17.676 654.448 17.532C654.616 17.364 654.82 17.28 655.06 17.28H656.788C657.028 17.28 657.22 17.364 657.364 17.532C657.532 17.676 657.616 17.868 657.616 18.108V23.4H661.36C663.736 23.4 665.5 23.964 666.652 25.092C667.828 26.196 668.416 27.768 668.416 29.808C668.416 31.92 667.792 33.48 666.544 34.488C665.32 35.496 663.448 36 660.928 36H655.06ZM671.8 36C671.56 36 671.356 35.928 671.188 35.784C671.044 35.616 670.972 35.412 670.972 35.172V18.108C670.972 17.868 671.044 17.676 671.188 17.532C671.356 17.364 671.56 17.28 671.8 17.28H673.528C673.768 17.28 673.96 17.364 674.104 17.532C674.272 17.676 674.356 17.868 674.356 18.108V35.172C674.356 35.412 674.272 35.616 674.104 35.784C673.96 35.928 673.768 36 673.528 36H671.8ZM661.036 33.3C662.524 33.3 663.592 33.036 664.24 32.508C664.912 31.98 665.248 31.08 665.248 29.808C665.248 28.536 664.912 27.6 664.24 27C663.592 26.4 662.524 26.1 661.036 26.1H657.58V33.3H661.036ZM678.857 36C678.665 36 678.485 35.928 678.317 35.784C678.173 35.64 678.101 35.46 678.101 35.244C678.101 35.028 678.185 34.812 678.353 34.596L684.617 26.424L678.749 18.684C678.581 18.492 678.497 18.276 678.497 18.036C678.497 17.82 678.569 17.64 678.713 17.496C678.857 17.352 679.037 17.28 679.253 17.28H681.089C681.449 17.28 681.761 17.472 682.025 17.856L686.813 24.084L691.601 17.892C691.745 17.7 691.877 17.556 691.997 17.46C692.141 17.34 692.321 17.28 692.537 17.28H694.301C694.517 17.28 694.697 17.352 694.841 17.496C694.985 17.64 695.057 17.82 695.057 18.036C695.057 18.276 694.973 18.492 694.805 18.684L688.865 26.496L695.129 34.596C695.297 34.812 695.381 35.028 695.381 35.244C695.381 35.46 695.309 35.64 695.165 35.784C695.021 35.928 694.841 36 694.625 36H692.717C692.357 36 692.045 35.82 691.781 35.46L686.741 28.872L681.629 35.46C681.485 35.628 681.341 35.76 681.197 35.856C681.077 35.952 680.909 36 680.693 36H678.857Z" fill="#1DC570"/>
<path d="M453.358 193C453.265 193 453.185 192.972 453.12 192.916C453.064 192.851 453.036 192.771 453.036 192.678V186.042C453.036 185.949 453.064 185.874 453.12 185.818C453.185 185.753 453.265 185.72 453.358 185.72H454.016C454.109 185.72 454.184 185.753 454.24 185.818C454.305 185.874 454.338 185.949 454.338 186.042V186.658C454.609 186.313 454.926 186.047 455.29 185.86C455.663 185.673 456.125 185.58 456.676 185.58C457.572 185.58 458.267 185.869 458.762 186.448C459.266 187.017 459.518 187.778 459.518 188.73V192.678C459.518 192.771 459.485 192.851 459.42 192.916C459.364 192.972 459.289 193 459.196 193H458.496C458.403 193 458.323 192.972 458.258 192.916C458.202 192.851 458.174 192.771 458.174 192.678V188.8C458.174 188.137 458.011 187.624 457.684 187.26C457.367 186.896 456.905 186.714 456.298 186.714C455.71 186.714 455.243 186.901 454.898 187.274C454.553 187.638 454.38 188.147 454.38 188.8V192.678C454.38 192.771 454.347 192.851 454.282 192.916C454.226 192.972 454.151 193 454.058 193H453.358ZM464.438 193.14C463.477 193.14 462.707 192.846 462.128 192.258C461.559 191.661 461.246 190.849 461.19 189.822L461.176 189.346L461.19 188.884C461.256 187.876 461.573 187.073 462.142 186.476C462.721 185.879 463.482 185.58 464.424 185.58C465.46 185.58 466.263 185.911 466.832 186.574C467.402 187.227 467.686 188.114 467.686 189.234V189.472C467.686 189.565 467.654 189.645 467.588 189.71C467.532 189.766 467.458 189.794 467.364 189.794H462.52V189.92C462.548 190.527 462.73 191.045 463.066 191.474C463.412 191.894 463.864 192.104 464.424 192.104C464.854 192.104 465.204 192.02 465.474 191.852C465.754 191.675 465.96 191.493 466.09 191.306C466.174 191.194 466.235 191.129 466.272 191.11C466.319 191.082 466.398 191.068 466.51 191.068H467.196C467.28 191.068 467.35 191.091 467.406 191.138C467.462 191.185 467.49 191.25 467.49 191.334C467.49 191.539 467.36 191.787 467.098 192.076C466.846 192.365 466.487 192.617 466.02 192.832C465.563 193.037 465.036 193.14 464.438 193.14ZM466.356 188.828V188.786C466.356 188.142 466.179 187.619 465.824 187.218C465.479 186.807 465.012 186.602 464.424 186.602C463.836 186.602 463.37 186.807 463.024 187.218C462.688 187.619 462.52 188.142 462.52 188.786V188.828H466.356ZM472.076 193.14C471.19 193.14 470.504 192.855 470.018 192.286C469.533 191.707 469.29 190.942 469.29 189.99V186.042C469.29 185.949 469.318 185.874 469.374 185.818C469.44 185.753 469.519 185.72 469.612 185.72H470.312C470.406 185.72 470.48 185.753 470.536 185.818C470.602 185.874 470.634 185.949 470.634 186.042V189.92C470.634 191.311 471.241 192.006 472.454 192.006C473.042 192.006 473.509 191.824 473.854 191.46C474.2 191.087 474.372 190.573 474.372 189.92V186.042C474.372 185.949 474.4 185.874 474.456 185.818C474.522 185.753 474.601 185.72 474.694 185.72H475.394C475.488 185.72 475.562 185.753 475.618 185.818C475.674 185.874 475.702 185.949 475.702 186.042V192.678C475.702 192.771 475.674 192.851 475.618 192.916C475.562 192.972 475.488 193 475.394 193H474.736C474.643 193 474.564 192.972 474.498 192.916C474.442 192.851 474.414 192.771 474.414 192.678V192.062C474.153 192.417 473.836 192.687 473.462 192.874C473.089 193.051 472.627 193.14 472.076 193.14ZM478.104 193C478.011 193 477.931 192.972 477.866 192.916C477.81 192.851 477.782 192.771 477.782 192.678V186.056C477.782 185.963 477.81 185.883 477.866 185.818C477.931 185.753 478.011 185.72 478.104 185.72H478.748C478.841 185.72 478.921 185.753 478.986 185.818C479.051 185.883 479.084 185.963 479.084 186.056V186.672C479.467 186.037 480.12 185.72 481.044 185.72H481.59C481.683 185.72 481.758 185.753 481.814 185.818C481.879 185.874 481.912 185.949 481.912 186.042V186.616C481.912 186.709 481.879 186.784 481.814 186.84C481.758 186.896 481.683 186.924 481.59 186.924H480.75C480.246 186.924 479.849 187.073 479.56 187.372C479.271 187.661 479.126 188.058 479.126 188.562V192.678C479.126 192.771 479.093 192.851 479.028 192.916C478.963 192.972 478.883 193 478.79 193H478.104ZM485.021 193.14C484.564 193.14 484.139 193.047 483.747 192.86C483.355 192.673 483.042 192.421 482.809 192.104C482.585 191.777 482.473 191.418 482.473 191.026C482.473 190.41 482.725 189.906 483.229 189.514C483.742 189.113 484.433 188.851 485.301 188.73L487.387 188.436V188.03C487.387 187.078 486.841 186.602 485.749 186.602C485.338 186.602 485.002 186.691 484.741 186.868C484.48 187.036 484.284 187.237 484.153 187.47C484.125 187.554 484.088 187.615 484.041 187.652C484.004 187.689 483.948 187.708 483.873 187.708H483.271C483.187 187.708 483.112 187.68 483.047 187.624C482.991 187.559 482.963 187.484 482.963 187.4C482.972 187.176 483.075 186.924 483.271 186.644C483.476 186.355 483.789 186.107 484.209 185.902C484.629 185.687 485.147 185.58 485.763 185.58C486.808 185.58 487.56 185.827 488.017 186.322C488.474 186.807 488.703 187.414 488.703 188.142V192.678C488.703 192.771 488.67 192.851 488.605 192.916C488.549 192.972 488.474 193 488.381 193H487.737C487.644 193 487.564 192.972 487.499 192.916C487.443 192.851 487.415 192.771 487.415 192.678V192.076C487.21 192.375 486.911 192.627 486.519 192.832C486.127 193.037 485.628 193.14 485.021 193.14ZM485.315 192.09C485.922 192.09 486.416 191.894 486.799 191.502C487.191 191.101 487.387 190.527 487.387 189.78V189.388L485.763 189.626C485.1 189.719 484.601 189.878 484.265 190.102C483.929 190.317 483.761 190.592 483.761 190.928C483.761 191.301 483.915 191.591 484.223 191.796C484.531 191.992 484.895 192.09 485.315 192.09ZM491.038 193C490.944 193 490.865 192.972 490.8 192.916C490.744 192.851 490.716 192.771 490.716 192.678V186.042C490.716 185.949 490.744 185.874 490.8 185.818C490.865 185.753 490.944 185.72 491.038 185.72H491.668C491.761 185.72 491.836 185.753 491.892 185.818C491.957 185.874 491.99 185.949 491.99 186.042V186.532C492.475 185.897 493.152 185.58 494.02 185.58C495.056 185.58 495.788 186.009 496.218 186.868C496.442 186.476 496.759 186.163 497.17 185.93C497.58 185.697 498.042 185.58 498.556 185.58C499.321 185.58 499.946 185.841 500.432 186.364C500.917 186.887 501.16 187.643 501.16 188.632V192.678C501.16 192.771 501.127 192.851 501.062 192.916C501.006 192.972 500.931 193 500.838 193H500.18C500.086 193 500.007 192.972 499.942 192.916C499.886 192.851 499.858 192.771 499.858 192.678V188.758C499.858 188.03 499.704 187.507 499.396 187.19C499.097 186.873 498.7 186.714 498.206 186.714C497.767 186.714 497.389 186.877 497.072 187.204C496.754 187.521 496.596 188.039 496.596 188.758V192.678C496.596 192.771 496.563 192.851 496.498 192.916C496.442 192.972 496.367 193 496.274 193H495.616C495.522 193 495.443 192.972 495.378 192.916C495.322 192.851 495.294 192.771 495.294 192.678V188.758C495.294 188.03 495.135 187.507 494.818 187.19C494.51 186.873 494.118 186.714 493.642 186.714C493.203 186.714 492.825 186.877 492.508 187.204C492.19 187.521 492.032 188.035 492.032 188.744V192.678C492.032 192.771 491.999 192.851 491.934 192.916C491.878 192.972 491.803 193 491.71 193H491.038ZM505.187 193.14C504.73 193.14 504.305 193.047 503.913 192.86C503.521 192.673 503.208 192.421 502.975 192.104C502.751 191.777 502.639 191.418 502.639 191.026C502.639 190.41 502.891 189.906 503.395 189.514C503.908 189.113 504.599 188.851 505.467 188.73L507.553 188.436V188.03C507.553 187.078 507.007 186.602 505.915 186.602C505.504 186.602 505.168 186.691 504.907 186.868C504.646 187.036 504.45 187.237 504.319 187.47C504.291 187.554 504.254 187.615 504.207 187.652C504.17 187.689 504.114 187.708 504.039 187.708H503.437C503.353 187.708 503.278 187.68 503.213 187.624C503.157 187.559 503.129 187.484 503.129 187.4C503.138 187.176 503.241 186.924 503.437 186.644C503.642 186.355 503.955 186.107 504.375 185.902C504.795 185.687 505.313 185.58 505.929 185.58C506.974 185.58 507.726 185.827 508.183 186.322C508.64 186.807 508.869 187.414 508.869 188.142V192.678C508.869 192.771 508.836 192.851 508.771 192.916C508.715 192.972 508.64 193 508.547 193H507.903C507.81 193 507.73 192.972 507.665 192.916C507.609 192.851 507.581 192.771 507.581 192.678V192.076C507.376 192.375 507.077 192.627 506.685 192.832C506.293 193.037 505.794 193.14 505.187 193.14ZM505.481 192.09C506.088 192.09 506.582 191.894 506.965 191.502C507.357 191.101 507.553 190.527 507.553 189.78V189.388L505.929 189.626C505.266 189.719 504.767 189.878 504.431 190.102C504.095 190.317 503.927 190.592 503.927 190.928C503.927 191.301 504.081 191.591 504.389 191.796C504.697 191.992 505.061 192.09 505.481 192.09ZM511.204 193C511.11 193 511.031 192.972 510.966 192.916C510.91 192.851 510.882 192.771 510.882 192.678V186.056C510.882 185.963 510.91 185.883 510.966 185.818C511.031 185.753 511.11 185.72 511.204 185.72H511.848C511.941 185.72 512.02 185.753 512.086 185.818C512.151 185.883 512.184 185.963 512.184 186.056V186.672C512.566 186.037 513.22 185.72 514.144 185.72H514.69C514.783 185.72 514.858 185.753 514.914 185.818C514.979 185.874 515.012 185.949 515.012 186.042V186.616C515.012 186.709 514.979 186.784 514.914 186.84C514.858 186.896 514.783 186.924 514.69 186.924H513.85C513.346 186.924 512.949 187.073 512.66 187.372C512.37 187.661 512.226 188.058 512.226 188.562V192.678C512.226 192.771 512.193 192.851 512.128 192.916C512.062 192.972 511.983 193 511.89 193H511.204ZM516.536 193C516.443 193 516.363 192.972 516.298 192.916C516.242 192.851 516.214 192.771 516.214 192.678V183.382C516.214 183.289 516.242 183.214 516.298 183.158C516.363 183.093 516.443 183.06 516.536 183.06H517.194C517.287 183.06 517.362 183.093 517.418 183.158C517.483 183.214 517.516 183.289 517.516 183.382V188.254L520.274 185.958C520.302 185.939 520.349 185.902 520.414 185.846C520.479 185.799 520.54 185.767 520.596 185.748C520.661 185.729 520.741 185.72 520.834 185.72H521.576C521.66 185.72 521.73 185.748 521.786 185.804C521.842 185.86 521.87 185.93 521.87 186.014C521.87 186.117 521.814 186.205 521.702 186.28L518.468 188.968L522.052 192.454C522.164 192.547 522.22 192.631 522.22 192.706C522.22 192.79 522.192 192.86 522.136 192.916C522.08 192.972 522.01 193 521.926 193H521.198C521.058 193 520.955 192.986 520.89 192.958C520.834 192.93 520.75 192.865 520.638 192.762L517.516 189.78V192.678C517.516 192.771 517.483 192.851 517.418 192.916C517.362 192.972 517.287 193 517.194 193H516.536Z" fill="black"/>
<path d="M390.354 153.354C390.549 153.158 390.549 152.842 390.354 152.646L387.172 149.464C386.976 149.269 386.66 149.269 386.464 149.464C386.269 149.66 386.269 149.976 386.464 150.172L389.293 153L386.464 155.828C386.269 156.024 386.269 156.34 386.464 156.536C386.66 156.731 386.976 156.731 387.172 156.536L390.354 153.354ZM340 153.5H390V152.5H340V153.5Z" fill="black"/>
<path d="M637.354 132.354C637.549 132.158 637.549 131.842 637.354 131.646L634.172 128.464C633.976 128.269 633.66 128.269 633.464 128.464C633.269 128.66 633.269 128.976 633.464 129.172L636.293 132L633.464 134.828C633.269 135.024 633.269 135.34 633.464 135.536C633.66 135.731 633.976 135.731 634.172 135.536L637.354 132.354ZM587 132.5H637V131.5H587V132.5Z" fill="black"/>
<path d="M637.354 95.3536C637.549 95.1583 637.549 94.8417 637.354 94.6464L634.172 91.4645C633.976 91.2692 633.66 91.2692 633.464 91.4645C633.269 91.6597 633.269 91.9763 633.464 92.1716L636.293 95L633.464 97.8284C633.269 98.0237 633.269 98.3403 633.464 98.5355C633.66 98.7308 633.976 98.7308 634.172 98.5355L637.354 95.3536ZM587 95.5H637V94.5H587V95.5Z" fill="black"/>
<path d="M390.354 114.354C390.549 114.158 390.549 113.842 390.354 113.646L387.172 110.464C386.976 110.269 386.66 110.269 386.464 110.464C386.269 110.66 386.269 110.976 386.464 111.172L389.293 114L386.464 116.828C386.269 117.024 386.269 117.34 386.464 117.536C386.66 117.731 386.976 117.731 387.172 117.536L390.354 114.354ZM340 114.5H390V113.5H340V114.5Z" fill="black"/>
<path d="M390.354 79.3536C390.549 79.1583 390.549 78.8417 390.354 78.6464L387.172 75.4645C386.976 75.2692 386.66 75.2692 386.464 75.4645C386.269 75.6597 386.269 75.9763 386.464 76.1716L389.293 79L386.464 81.8284C386.269 82.0237 386.269 82.3403 386.464 82.5355C386.66 82.7308 386.976 82.7308 387.172 82.5355L390.354 79.3536ZM340 79.5H390V78.5H340V79.5Z" fill="black"/>
<line x1="412.877" y1="76.5153" x2="487.877" y2="57.5153" stroke="black" stroke-opacity="0.5"/>
<line x1="412.877" y1="113.515" x2="487.877" y2="94.5153" stroke="black" stroke-opacity="0.5"/>
<line x1="412.877" y1="150.515" x2="487.877" y2="131.515" stroke="black" stroke-opacity="0.5"/>
<line x1="413.117" y1="76.5138" x2="488.117" y2="94.5138" stroke="black" stroke-opacity="0.5"/>
<line x1="413.296" y1="76.5968" x2="488.296" y2="131.597" stroke="black" stroke-opacity="0.5"/>
<line x1="413.384" y1="78.6799" x2="488.384" y2="168.68" stroke="black" stroke-opacity="0.5"/>
<line x1="413.135" y1="147.519" x2="488.135" y2="168.519" stroke="black" stroke-opacity="0.5"/>
<line x1="412.706" y1="147.595" x2="485.706" y2="94.5954" stroke="black" stroke-opacity="0.5"/>
<line x1="412.616" y1="147.68" x2="487.616" y2="57.6799" stroke="black" stroke-opacity="0.5"/>
<line x1="412.701" y1="113.599" x2="487.701" y2="57.5994" stroke="black" stroke-opacity="0.5"/>
<line x1="413.117" y1="113.514" x2="488.117" y2="131.514" stroke="black" stroke-opacity="0.5"/>
<line x1="413.289" y1="115.592" x2="488.289" y2="168.592" stroke="black" stroke-opacity="0.5"/>
<line x1="488.221" y1="57.5516" x2="563.221" y2="94.5516" stroke="black" stroke-opacity="0.5"/>
<line x1="488.351" y1="57.6441" x2="563.351" y2="131.644" stroke="black" stroke-opacity="0.5"/>
<line x1="488" y1="94.5" x2="563" y2="94.5" stroke="black" stroke-opacity="0.5"/>
<line x1="486.226" y1="92.554" x2="563.226" y2="131.554" stroke="black" stroke-opacity="0.5"/>
<line x1="485.793" y1="129.545" x2="562.793" y2="94.5448" stroke="black" stroke-opacity="0.5"/>
<line x1="488.013" y1="129.5" x2="563.013" y2="131.5" stroke="black" stroke-opacity="0.5"/>
<line x1="487.784" y1="166.549" x2="562.784" y2="130.549" stroke="black" stroke-opacity="0.5"/>
<line x1="487.654" y1="166.639" x2="562.654" y2="94.6393" stroke="black" stroke-opacity="0.5"/>
<circle cx="413" cy="151" r="14.5" fill="#42A5F5" stroke="white" stroke-width="3"/>
<circle cx="413" cy="114" r="14.5" fill="#42A5F5" stroke="white" stroke-width="3"/>
<circle cx="413" cy="77" r="14.5" fill="#42A5F5" stroke="white" stroke-width="3"/>
<circle cx="488" cy="95" r="14.5" fill="#FBBC05" stroke="white" stroke-width="3"/>
<circle cx="488" cy="129" r="14.5" fill="#FBBC05" stroke="white" stroke-width="3"/>
<circle cx="488" cy="163" r="14.5" fill="#FBBC05" stroke="white" stroke-width="3"/>
<circle cx="488" cy="61" r="14.5" fill="#FBBC05" stroke="white" stroke-width="3"/>
<circle cx="563" cy="132" r="14.5" fill="#1DC570"/>
<circle cx="563" cy="132" r="14.5" fill="#1DC570"/>
<circle cx="563" cy="132" r="14.5" fill="#1DC570"/>
<circle cx="563" cy="132" r="14.5" fill="#1DC570"/>
<circle cx="563" cy="132" r="14.5" stroke="white" stroke-width="3"/>
<circle cx="563" cy="95" r="14.5" fill="#1DC570"/>
<circle cx="563" cy="95" r="14.5" fill="#1DC570"/>
<circle cx="563" cy="95" r="14.5" fill="#1DC570"/>
<circle cx="563" cy="95" r="14.5" fill="#1DC570"/>
<circle cx="563" cy="95" r="14.5" stroke="white" stroke-width="3"/>
<path d="M166.319 104C166.079 104 165.875 103.928 165.707 103.784C165.563 103.616 165.491 103.412 165.491 103.172V79.664C165.491 79.4 165.563 79.196 165.707 79.052C165.875 78.884 166.079 78.8 166.319 78.8H176.183C178.751 78.8 180.683 79.412 181.979 80.636C183.275 81.86 183.923 83.468 183.923 85.46C183.923 86.804 183.611 87.92 182.987 88.808C182.387 89.696 181.667 90.344 180.827 90.752C181.835 91.256 182.687 92.036 183.383 93.092C184.079 94.148 184.427 95.36 184.427 96.728C184.427 98.072 184.115 99.296 183.491 100.4C182.891 101.504 181.991 102.38 180.791 103.028C179.591 103.676 178.151 104 176.471 104H166.319ZM175.643 89.456C177.155 89.456 178.307 89.108 179.099 88.412C179.915 87.716 180.323 86.744 180.323 85.496C180.323 84.272 179.927 83.336 179.135 82.688C178.343 82.04 177.179 81.716 175.643 81.716H169.019V89.456H175.643ZM176.003 101.084C177.515 101.084 178.691 100.676 179.531 99.86C180.395 99.044 180.827 98 180.827 96.728C180.827 95.408 180.395 94.352 179.531 93.56C178.691 92.744 177.515 92.336 176.003 92.336H169.019V101.084H176.003ZM188.206 104C188.014 104 187.834 103.928 187.666 103.784C187.522 103.64 187.45 103.46 187.45 103.244C187.45 103.028 187.534 102.812 187.702 102.596L193.966 94.424L188.098 86.684C187.93 86.492 187.846 86.276 187.846 86.036C187.846 85.82 187.918 85.64 188.062 85.496C188.206 85.352 188.386 85.28 188.602 85.28H190.438C190.798 85.28 191.11 85.472 191.374 85.856L196.162 92.084L200.95 85.892C201.094 85.7 201.226 85.556 201.346 85.46C201.49 85.34 201.67 85.28 201.886 85.28H203.65C203.866 85.28 204.046 85.352 204.19 85.496C204.334 85.64 204.406 85.82 204.406 86.036C204.406 86.276 204.322 86.492 204.154 86.684L198.214 94.496L204.478 102.596C204.646 102.812 204.73 103.028 204.73 103.244C204.73 103.46 204.658 103.64 204.514 103.784C204.37 103.928 204.19 104 203.974 104H202.066C201.706 104 201.394 103.82 201.13 103.46L196.09 96.872L190.978 103.46C190.834 103.628 190.69 103.76 190.546 103.856C190.426 103.952 190.258 104 190.042 104H188.206ZM216.145 104.36C213.505 104.36 211.453 103.616 209.989 102.128C208.549 100.64 207.781 98.66 207.685 96.188L207.649 94.64L207.685 93.092C207.781 90.644 208.561 88.676 210.025 87.188C211.489 85.676 213.529 84.92 216.145 84.92C218.761 84.92 220.801 85.676 222.265 87.188C223.729 88.676 224.509 90.644 224.605 93.092C224.629 93.356 224.641 93.872 224.641 94.64C224.641 95.408 224.629 95.924 224.605 96.188C224.509 98.66 223.729 100.64 222.265 102.128C220.825 103.616 218.785 104.36 216.145 104.36ZM216.145 101.588C217.657 101.588 218.845 101.108 219.709 100.148C220.597 99.188 221.077 97.808 221.149 96.008C221.173 95.768 221.185 95.312 221.185 94.64C221.185 93.968 221.173 93.512 221.149 93.272C221.077 91.472 220.597 90.092 219.709 89.132C218.845 88.172 217.657 87.692 216.145 87.692C214.633 87.692 213.433 88.172 212.545 89.132C211.657 90.092 211.189 91.472 211.141 93.272L211.104 94.64L211.141 96.008C211.189 97.808 211.657 99.188 212.545 100.148C213.433 101.108 214.633 101.588 216.145 101.588ZM228.068 107.96C227.828 107.96 227.624 107.876 227.456 107.708C227.312 107.564 227.24 107.372 227.24 107.132V101.948C227.24 101.708 227.312 101.516 227.456 101.372C227.624 101.204 227.828 101.12 228.068 101.12H228.248C229.256 101.096 230.012 100.256 230.516 98.6C231.044 96.944 231.308 94.316 231.308 90.716V86.108C231.308 85.868 231.38 85.676 231.524 85.532C231.692 85.364 231.896 85.28 232.136 85.28H243.62C243.86 85.28 244.052 85.364 244.196 85.532C244.364 85.676 244.448 85.868 244.448 86.108V101.048H246.14C246.38 101.048 246.572 101.132 246.716 101.3C246.884 101.444 246.968 101.636 246.968 101.876V107.132C246.968 107.372 246.884 107.564 246.716 107.708C246.572 107.876 246.38 107.96 246.14 107.96H244.448C244.208 107.96 244.004 107.876 243.836 107.708C243.692 107.564 243.62 107.372 243.62 107.132V104H230.588V107.132C230.588 107.372 230.504 107.564 230.336 107.708C230.192 107.876 230 107.96 229.76 107.96H228.068ZM241.1 101.048V88.16H234.584V91.112C234.584 95.912 233.9 99.248 232.532 101.12L241.1 101.048ZM251.562 104C251.322 104 251.118 103.928 250.95 103.784C250.806 103.616 250.734 103.412 250.734 103.172V86.108C250.734 85.868 250.806 85.676 250.95 85.532C251.118 85.364 251.322 85.28 251.562 85.28H253.29C253.53 85.28 253.722 85.364 253.866 85.532C254.034 85.676 254.118 85.868 254.118 86.108V93.02H263.91V86.108C263.91 85.868 263.982 85.676 264.126 85.532C264.294 85.364 264.498 85.28 264.738 85.28H266.43C266.67 85.28 266.862 85.364 267.006 85.532C267.174 85.676 267.258 85.868 267.258 86.108V103.172C267.258 103.412 267.174 103.616 267.006 103.784C266.862 103.928 266.67 104 266.43 104H264.738C264.498 104 264.294 103.928 264.126 103.784C263.982 103.616 263.91 103.412 263.91 103.172V95.9H254.118V103.172C254.118 103.412 254.034 103.616 253.866 103.784C253.722 103.928 253.53 104 253.29 104H251.562ZM273.5 104C273.26 104 273.056 103.928 272.888 103.784C272.744 103.616 272.672 103.412 272.672 103.172V86.108C272.672 85.868 272.744 85.676 272.888 85.532C273.056 85.364 273.26 85.28 273.5 85.28H275.228C275.468 85.28 275.66 85.364 275.804 85.532C275.972 85.676 276.056 85.868 276.056 86.108V91.4H279.8C282.176 91.4 283.94 91.964 285.092 93.092C286.268 94.196 286.856 95.768 286.856 97.808C286.856 99.92 286.232 101.48 284.984 102.488C283.76 103.496 281.888 104 279.368 104H273.5ZM290.24 104C290 104 289.796 103.928 289.628 103.784C289.484 103.616 289.412 103.412 289.412 103.172V86.108C289.412 85.868 289.484 85.676 289.628 85.532C289.796 85.364 290 85.28 290.24 85.28H291.968C292.208 85.28 292.4 85.364 292.544 85.532C292.712 85.676 292.796 85.868 292.796 86.108V103.172C292.796 103.412 292.712 103.616 292.544 103.784C292.4 103.928 292.208 104 291.968 104H290.24ZM279.476 101.3C280.964 101.3 282.032 101.036 282.68 100.508C283.352 99.98 283.688 99.08 283.688 97.808C283.688 96.536 283.352 95.6 282.68 95C282.032 94.4 280.964 94.1 279.476 94.1H276.02V101.3H279.476ZM305.648 104.36C303.176 104.36 301.196 103.604 299.708 102.092C298.244 100.556 297.44 98.468 297.296 95.828L297.26 94.604L297.296 93.416C297.464 90.824 298.28 88.76 299.744 87.224C301.232 85.688 303.188 84.92 305.612 84.92C308.276 84.92 310.34 85.772 311.804 87.476C313.268 89.156 314 91.436 314 94.316V94.928C314 95.168 313.916 95.372 313.748 95.54C313.604 95.684 313.412 95.756 313.172 95.756H300.716V96.08C300.788 97.64 301.256 98.972 302.12 100.076C303.008 101.156 304.172 101.696 305.612 101.696C306.716 101.696 307.616 101.48 308.312 101.048C309.032 100.592 309.56 100.124 309.896 99.644C310.112 99.356 310.268 99.188 310.364 99.14C310.484 99.068 310.688 99.032 310.976 99.032H312.74C312.956 99.032 313.136 99.092 313.28 99.212C313.424 99.332 313.496 99.5 313.496 99.716C313.496 100.244 313.16 100.88 312.488 101.624C311.84 102.368 310.916 103.016 309.716 103.568C308.54 104.096 307.184 104.36 305.648 104.36ZM310.58 93.272V93.164C310.58 91.508 310.124 90.164 309.212 89.132C308.324 88.076 307.124 87.548 305.612 87.548C304.1 87.548 302.9 88.076 302.012 89.132C301.148 90.164 300.716 91.508 300.716 93.164V93.272H310.58ZM175.105 150.96C174.865 150.96 174.661 150.876 174.493 150.708C174.349 150.564 174.277 150.372 174.277 150.132V144.948C174.277 144.708 174.349 144.516 174.493 144.372C174.661 144.204 174.865 144.12 175.105 144.12H175.285C176.293 144.096 177.049 143.256 177.553 141.6C178.081 139.944 178.345 137.316 178.345 133.716V129.108C178.345 128.868 178.417 128.676 178.561 128.532C178.729 128.364 178.933 128.28 179.173 128.28H190.657C190.897 128.28 191.089 128.364 191.233 128.532C191.401 128.676 191.485 128.868 191.485 129.108V144.048H193.177C193.417 144.048 193.609 144.132 193.753 144.3C193.921 144.444 194.005 144.636 194.005 144.876V150.132C194.005 150.372 193.921 150.564 193.753 150.708C193.609 150.876 193.417 150.96 193.177 150.96H191.485C191.245 150.96 191.041 150.876 190.873 150.708C190.729 150.564 190.657 150.372 190.657 150.132V147H177.625V150.132C177.625 150.372 177.541 150.564 177.373 150.708C177.229 150.876 177.037 150.96 176.797 150.96H175.105ZM188.137 144.048V131.16H181.621V134.112C181.621 138.912 180.937 142.248 179.569 144.12L188.137 144.048ZM202.991 147.36C201.815 147.36 200.723 147.12 199.715 146.64C198.707 146.16 197.903 145.512 197.303 144.696C196.727 143.856 196.439 142.932 196.439 141.924C196.439 140.34 197.087 139.044 198.383 138.036C199.703 137.004 201.479 136.332 203.711 136.02L209.075 135.264V134.22C209.075 131.772 207.671 130.548 204.863 130.548C203.807 130.548 202.943 130.776 202.271 131.232C201.599 131.664 201.095 132.18 200.759 132.78C200.687 132.996 200.591 133.152 200.471 133.248C200.375 133.344 200.231 133.392 200.039 133.392H198.491C198.275 133.392 198.083 133.32 197.915 133.176C197.771 133.008 197.699 132.816 197.699 132.6C197.723 132.024 197.987 131.376 198.491 130.656C199.019 129.912 199.823 129.276 200.903 128.748C201.983 128.196 203.315 127.92 204.899 127.92C207.587 127.92 209.519 128.556 210.695 129.828C211.871 131.076 212.459 132.636 212.459 134.508V146.172C212.459 146.412 212.375 146.616 212.207 146.784C212.063 146.928 211.871 147 211.631 147H209.975C209.735 147 209.531 146.928 209.363 146.784C209.219 146.616 209.147 146.412 209.147 146.172V144.624C208.619 145.392 207.851 146.04 206.843 146.568C205.835 147.096 204.551 147.36 202.991 147.36ZM203.747 144.66C205.307 144.66 206.579 144.156 207.563 143.148C208.571 142.116 209.075 140.64 209.075 138.72V137.712L204.899 138.324C203.195 138.564 201.911 138.972 201.047 139.548C200.183 140.1 199.751 140.808 199.751 141.672C199.751 142.632 200.147 143.376 200.939 143.904C201.731 144.408 202.667 144.66 203.747 144.66ZM218.463 147C218.223 147 218.019 146.928 217.851 146.784C217.707 146.616 217.635 146.412 217.635 146.172V129.108C217.635 128.868 217.707 128.676 217.851 128.532C218.019 128.364 218.223 128.28 218.463 128.28H220.191C220.431 128.28 220.623 128.364 220.767 128.532C220.935 128.676 221.019 128.868 221.019 129.108V136.02H230.811V129.108C230.811 128.868 230.883 128.676 231.027 128.532C231.195 128.364 231.399 128.28 231.639 128.28H233.331C233.571 128.28 233.763 128.364 233.907 128.532C234.075 128.676 234.159 128.868 234.159 129.108V146.172C234.159 146.412 234.075 146.616 233.907 146.784C233.763 146.928 233.571 147 233.331 147H231.639C231.399 147 231.195 146.928 231.027 146.784C230.883 146.616 230.811 146.412 230.811 146.172V138.9H221.019V146.172C221.019 146.412 220.935 146.616 220.767 146.784C220.623 146.928 220.431 147 220.191 147H218.463ZM240.4 147C240.16 147 239.956 146.928 239.788 146.784C239.644 146.616 239.572 146.412 239.572 146.172V129.108C239.572 128.868 239.644 128.676 239.788 128.532C239.956 128.364 240.16 128.28 240.4 128.28H242.128C242.368 128.28 242.56 128.364 242.704 128.532C242.872 128.676 242.956 128.868 242.956 129.108V136.02H252.748V129.108C252.748 128.868 252.82 128.676 252.964 128.532C253.132 128.364 253.336 128.28 253.576 128.28H255.268C255.508 128.28 255.7 128.364 255.844 128.532C256.012 128.676 256.096 128.868 256.096 129.108V146.172C256.096 146.412 256.012 146.616 255.844 146.784C255.7 146.928 255.508 147 255.268 147H253.576C253.336 147 253.132 146.928 252.964 146.784C252.82 146.616 252.748 146.412 252.748 146.172V138.9H242.956V146.172C242.956 146.412 242.872 146.616 242.704 146.784C242.56 146.928 242.368 147 242.128 147H240.4ZM262.338 147C262.098 147 261.894 146.928 261.726 146.784C261.582 146.616 261.51 146.412 261.51 146.172V129.108C261.51 128.868 261.582 128.676 261.726 128.532C261.894 128.364 262.098 128.28 262.338 128.28H264.066C264.306 128.28 264.498 128.364 264.642 128.532C264.81 128.676 264.894 128.868 264.894 129.108V134.4H268.638C271.014 134.4 272.778 134.964 273.93 136.092C275.106 137.196 275.694 138.768 275.694 140.808C275.694 142.92 275.07 144.48 273.822 145.488C272.598 146.496 270.726 147 268.206 147H262.338ZM279.078 147C278.838 147 278.634 146.928 278.466 146.784C278.322 146.616 278.25 146.412 278.25 146.172V129.108C278.25 128.868 278.322 128.676 278.466 128.532C278.634 128.364 278.838 128.28 279.078 128.28H280.806C281.046 128.28 281.238 128.364 281.382 128.532C281.55 128.676 281.634 128.868 281.634 129.108V146.172C281.634 146.412 281.55 146.616 281.382 146.784C281.238 146.928 281.046 147 280.806 147H279.078ZM268.314 144.3C269.802 144.3 270.87 144.036 271.518 143.508C272.19 142.98 272.526 142.08 272.526 140.808C272.526 139.536 272.19 138.6 271.518 138C270.87 137.4 269.802 137.1 268.314 137.1H264.858V144.3H268.314ZM294.486 147.36C292.014 147.36 290.034 146.604 288.546 145.092C287.082 143.556 286.278 141.468 286.134 138.828L286.098 137.604L286.134 136.416C286.302 133.824 287.118 131.76 288.582 130.224C290.07 128.688 292.026 127.92 294.45 127.92C297.114 127.92 299.178 128.772 300.642 130.476C302.106 132.156 302.838 134.436 302.838 137.316V137.928C302.838 138.168 302.754 138.372 302.586 138.54C302.442 138.684 302.25 138.756 302.01 138.756H289.554V139.08C289.626 140.64 290.094 141.972 290.958 143.076C291.846 144.156 293.01 144.696 294.45 144.696C295.554 144.696 296.454 144.48 297.15 144.048C297.87 143.592 298.398 143.124 298.734 142.644C298.95 142.356 299.106 142.188 299.202 142.14C299.322 142.068 299.526 142.032 299.814 142.032H301.578C301.794 142.032 301.974 142.092 302.118 142.212C302.262 142.332 302.334 142.5 302.334 142.716C302.334 143.244 301.998 143.88 301.326 144.624C300.678 145.368 299.754 146.016 298.554 146.568C297.378 147.096 296.022 147.36 294.486 147.36ZM299.418 136.272V136.164C299.418 134.508 298.962 133.164 298.05 132.132C297.162 131.076 295.962 130.548 294.45 130.548C292.938 130.548 291.738 131.076 290.85 132.132C289.986 133.164 289.554 134.508 289.554 136.164V136.272H299.418Z" fill="black"/>
<path d="M665.017 122C664.777 122 664.573 121.928 664.405 121.784C664.261 121.616 664.189 121.412 664.189 121.172V97.664C664.189 97.4 664.261 97.196 664.405 97.052C664.573 96.884 664.777 96.8 665.017 96.8H674.161C676.873 96.8 679.009 97.46 680.569 98.78C682.129 100.1 682.909 102.008 682.909 104.504C682.909 107 682.129 108.908 680.569 110.228C679.033 111.524 676.897 112.172 674.161 112.172H667.789V121.172C667.789 121.412 667.705 121.616 667.537 121.784C667.369 121.928 667.165 122 666.925 122H665.017ZM673.981 109.148C675.733 109.148 677.053 108.752 677.941 107.96C678.853 107.168 679.309 106.016 679.309 104.504C679.309 102.992 678.865 101.84 677.977 101.048C677.089 100.232 675.757 99.824 673.981 99.824H667.753V109.148H673.981ZM694.306 122.36C691.834 122.36 689.854 121.604 688.366 120.092C686.902 118.556 686.098 116.468 685.954 113.828L685.918 112.604L685.954 111.416C686.122 108.824 686.938 106.76 688.402 105.224C689.89 103.688 691.846 102.92 694.27 102.92C696.934 102.92 698.998 103.772 700.462 105.476C701.926 107.156 702.658 109.436 702.658 112.316V112.928C702.658 113.168 702.574 113.372 702.406 113.54C702.262 113.684 702.07 113.756 701.83 113.756H689.374V114.08C689.446 115.64 689.914 116.972 690.778 118.076C691.666 119.156 692.83 119.696 694.27 119.696C695.374 119.696 696.274 119.48 696.97 119.048C697.69 118.592 698.218 118.124 698.554 117.644C698.77 117.356 698.926 117.188 699.022 117.14C699.142 117.068 699.346 117.032 699.634 117.032H701.398C701.614 117.032 701.794 117.092 701.938 117.212C702.082 117.332 702.154 117.5 702.154 117.716C702.154 118.244 701.818 118.88 701.146 119.624C700.498 120.368 699.574 121.016 698.374 121.568C697.198 122.096 695.842 122.36 694.306 122.36ZM699.238 111.272V111.164C699.238 109.508 698.782 108.164 697.87 107.132C696.982 106.076 695.782 105.548 694.27 105.548C692.758 105.548 691.558 106.076 690.67 107.132C689.806 108.164 689.374 109.508 689.374 111.164V111.272H699.238ZM713.479 122.36C711.727 122.36 710.275 122.084 709.123 121.532C707.995 120.98 707.167 120.308 706.639 119.516C706.135 118.724 705.871 117.944 705.847 117.176V117.104C705.847 116.912 705.919 116.756 706.063 116.636C706.207 116.516 706.375 116.456 706.567 116.456H708.259C708.691 116.456 708.979 116.684 709.123 117.14C709.387 118.052 709.903 118.7 710.671 119.084C711.463 119.444 712.495 119.624 713.767 119.624C714.991 119.624 715.999 119.372 716.791 118.868C717.583 118.364 717.979 117.62 717.979 116.636C717.979 115.628 717.691 114.884 717.115 114.404C716.563 113.9 715.699 113.648 714.523 113.648H712.543C712.327 113.648 712.147 113.576 712.003 113.432C711.859 113.288 711.787 113.096 711.787 112.856V111.884C711.787 111.644 711.859 111.452 712.003 111.308C712.147 111.164 712.327 111.092 712.543 111.092H714.307C716.347 111.092 717.367 110.288 717.367 108.68C717.367 107.816 717.055 107.096 716.431 106.52C715.831 105.944 714.847 105.656 713.479 105.656C712.159 105.656 711.199 105.884 710.599 106.34C710.023 106.772 709.603 107.468 709.339 108.428C709.243 108.668 709.123 108.848 708.979 108.968C708.859 109.064 708.679 109.112 708.439 109.112H706.819C706.603 109.112 706.423 109.052 706.279 108.932C706.135 108.788 706.063 108.62 706.063 108.428C706.087 107.444 706.375 106.532 706.927 105.692C707.479 104.852 708.307 104.18 709.411 103.676C710.515 103.172 711.871 102.92 713.479 102.92C715.159 102.92 716.539 103.184 717.619 103.712C718.699 104.24 719.479 104.9 719.959 105.692C720.439 106.484 720.679 107.312 720.679 108.176C720.679 109.16 720.511 109.964 720.175 110.588C719.863 111.188 719.287 111.692 718.447 112.1C719.479 112.484 720.211 113.084 720.643 113.9C721.099 114.716 721.327 115.712 721.327 116.888C721.327 118.64 720.607 119.996 719.167 120.956C717.727 121.892 715.831 122.36 713.479 122.36ZM740.757 103.28C740.949 103.28 741.117 103.352 741.261 103.496C741.405 103.64 741.477 103.808 741.477 104C741.477 104.168 741.417 104.384 741.297 104.648L734.457 120.848L734.133 121.568C733.509 123.08 732.933 124.328 732.405 125.312C731.877 126.296 731.217 127.124 730.425 127.796C729.633 128.492 728.697 128.84 727.617 128.84H726.249C726.009 128.84 725.805 128.768 725.637 128.624C725.493 128.48 725.421 128.276 725.421 128.012V126.788C725.421 126.548 725.493 126.344 725.637 126.176C725.805 126.032 726.009 125.96 726.249 125.96H727.185C727.713 125.96 728.145 125.852 728.481 125.636C728.817 125.444 729.117 125.108 729.381 124.628C729.669 124.148 730.017 123.416 730.425 122.432L731.037 120.956L723.981 104.648C723.861 104.336 723.801 104.132 723.801 104.036C723.825 103.82 723.909 103.64 724.053 103.496C724.197 103.352 724.365 103.28 724.557 103.28H726.249C726.657 103.28 726.957 103.484 727.149 103.892L732.657 117.104L738.237 103.892C738.405 103.484 738.705 103.28 739.137 103.28H740.757ZM743.082 122C742.842 122 742.638 121.916 742.47 121.748C742.302 121.58 742.218 121.376 742.218 121.136V119.804C742.218 119.564 742.29 119.372 742.434 119.228C742.578 119.084 742.758 119.012 742.974 119.012C744.126 118.964 744.978 118.148 745.53 116.564C746.106 114.956 746.394 112.34 746.394 108.716V104.108C746.394 103.868 746.466 103.676 746.61 103.532C746.778 103.364 746.982 103.28 747.222 103.28H758.67C758.91 103.28 759.102 103.364 759.246 103.532C759.414 103.676 759.498 103.868 759.498 104.108V121.172C759.498 121.412 759.414 121.616 759.246 121.784C759.102 121.928 758.91 122 758.67 122H756.942C756.702 122 756.51 121.928 756.366 121.784C756.222 121.616 756.15 121.412 756.15 121.172V106.16H749.67V109.112C749.67 113.696 749.142 116.996 748.086 119.012C747.03 121.004 745.362 122 743.082 122ZM765.693 122C765.453 122 765.249 121.928 765.081 121.784C764.937 121.616 764.865 121.412 764.865 121.172V104.108C764.865 103.868 764.937 103.676 765.081 103.532C765.249 103.364 765.453 103.28 765.693 103.28H767.421C767.661 103.28 767.853 103.364 767.997 103.532C768.165 103.676 768.249 103.868 768.249 104.108V109.4H772.281C774.657 109.4 776.421 109.964 777.573 111.092C778.749 112.196 779.337 113.768 779.337 115.808C779.337 117.92 778.713 119.48 777.465 120.488C776.241 121.496 774.369 122 771.849 122H765.693ZM771.993 119.3C773.457 119.3 774.513 119.036 775.161 118.508C775.833 117.98 776.169 117.08 776.169 115.808C776.169 114.536 775.833 113.6 775.161 113C774.513 112.4 773.457 112.1 771.993 112.1H768.213V119.3H771.993ZM788.624 122C788.384 122 788.18 121.928 788.012 121.784C787.868 121.616 787.796 121.412 787.796 121.172V106.16H781.532C781.292 106.16 781.088 106.088 780.92 105.944C780.776 105.776 780.704 105.572 780.704 105.332V104.108C780.704 103.868 780.776 103.676 780.92 103.532C781.088 103.364 781.292 103.28 781.532 103.28H797.372C797.612 103.28 797.804 103.364 797.948 103.532C798.116 103.676 798.2 103.868 798.2 104.108V105.332C798.2 105.572 798.116 105.776 797.948 105.944C797.804 106.088 797.612 106.16 797.372 106.16H791.108V121.172C791.108 121.412 791.036 121.616 790.892 121.784C790.748 121.928 790.556 122 790.316 122H788.624ZM806.542 122.36C805.366 122.36 804.274 122.12 803.266 121.64C802.258 121.16 801.454 120.512 800.854 119.696C800.278 118.856 799.99 117.932 799.99 116.924C799.99 115.34 800.638 114.044 801.934 113.036C803.254 112.004 805.03 111.332 807.262 111.02L812.626 110.264V109.22C812.626 106.772 811.222 105.548 808.414 105.548C807.358 105.548 806.494 105.776 805.822 106.232C805.15 106.664 804.646 107.18 804.31 107.78C804.238 107.996 804.142 108.152 804.022 108.248C803.926 108.344 803.782 108.392 803.59 108.392H802.042C801.826 108.392 801.634 108.32 801.466 108.176C801.322 108.008 801.25 107.816 801.25 107.6C801.274 107.024 801.538 106.376 802.042 105.656C802.57 104.912 803.374 104.276 804.454 103.748C805.534 103.196 806.866 102.92 808.45 102.92C811.138 102.92 813.07 103.556 814.246 104.828C815.422 106.076 816.01 107.636 816.01 109.508V121.172C816.01 121.412 815.926 121.616 815.758 121.784C815.614 121.928 815.422 122 815.182 122H813.526C813.286 122 813.082 121.928 812.914 121.784C812.77 121.616 812.698 121.412 812.698 121.172V119.624C812.17 120.392 811.402 121.04 810.394 121.568C809.386 122.096 808.102 122.36 806.542 122.36ZM807.298 119.66C808.858 119.66 810.13 119.156 811.114 118.148C812.122 117.116 812.626 115.64 812.626 113.72V112.712L808.45 113.324C806.746 113.564 805.462 113.972 804.598 114.548C803.734 115.1 803.302 115.808 803.302 116.672C803.302 117.632 803.698 118.376 804.49 118.904C805.282 119.408 806.218 119.66 807.298 119.66ZM826.909 122C826.669 122 826.465 121.928 826.297 121.784C826.153 121.616 826.081 121.412 826.081 121.172V106.16H819.817C819.577 106.16 819.373 106.088 819.205 105.944C819.061 105.776 818.989 105.572 818.989 105.332V104.108C818.989 103.868 819.061 103.676 819.205 103.532C819.373 103.364 819.577 103.28 819.817 103.28H835.657C835.897 103.28 836.089 103.364 836.233 103.532C836.401 103.676 836.485 103.868 836.485 104.108V105.332C836.485 105.572 836.401 105.776 836.233 105.944C836.089 106.088 835.897 106.16 835.657 106.16H829.393V121.172C829.393 121.412 829.321 121.616 829.177 121.784C829.033 121.928 828.841 122 828.601 122H826.909Z" fill="black"/>
</svg>
