<svg width="480" height="272" viewBox="0 0 480 272" fill="none" xmlns="http://www.w3.org/2000/svg">
<path d="M189.668 42.4344C186.146 42.3719 182.668 43.2186 179.57 44.8925V121.482H178.404V76.3302C177.887 76.3302 177.369 76.4596 176.851 76.4596V75.9421C172.19 76.3302 168.565 77.2358 167.659 79.8233C167.138 80.4357 166.86 81.2189 166.882 82.0226V124.069H164.551V125.363H162.221V132.737H161.315V134.936H160.926V141.923H158.726V125.751L158.596 125.363V124.069H158.208L158.078 121.999L157.948 120.446C158.078 120.318 158.208 120.318 158.208 120.058C158.208 119.956 158.167 119.856 158.094 119.784C158.02 119.711 157.922 119.67 157.82 119.67C157.716 119.67 157.618 119.711 157.544 119.784C157.471 119.856 157.431 119.956 157.431 120.058C157.431 120.188 157.56 120.318 157.69 120.446L157.56 121.999L157.431 124.069H157.042V124.587H155.619V123.939L154.194 123.163H153.676L152.123 123.939V124.587H150.699V124.069H150.31L150.18 121.999L150.051 120.446C150.18 120.318 150.31 120.318 150.31 120.058C150.31 119.956 150.269 119.856 150.196 119.784C150.124 119.711 150.024 119.67 149.922 119.67C149.819 119.67 149.72 119.711 149.647 119.784C149.575 119.856 149.534 119.956 149.534 120.058C149.534 120.188 149.662 120.318 149.792 120.446L149.662 121.999L149.534 124.069H149.662V125.363L149.534 125.751V132.349H147.461V115.531H147.591V113.202H147.073L146.815 110.485L146.685 108.545C146.815 108.415 147.073 108.285 147.073 108.027C147.073 107.889 147.019 107.758 146.922 107.66C146.824 107.564 146.693 107.509 146.555 107.509C146.419 107.509 146.287 107.564 146.189 107.66C146.093 107.758 146.038 107.889 146.038 108.027C146.038 108.285 146.167 108.415 146.426 108.545L146.297 110.485L146.038 113.202H145.52V114.883H143.449V113.331H142.154V100.523H142.024L141.895 99.6173V98.9709L142.024 98.8413C142.024 98.8072 142.011 98.774 141.986 98.7496C141.962 98.7253 141.929 98.7116 141.895 98.7116L141.765 98.8413C141.765 98.971 141.765 98.9709 141.895 98.9709V99.6173L141.765 100.523H141.636V101.041H141.248V100.523H140.6V100.135H139.694C139.7 99.9556 139.744 99.7792 139.823 99.6173C139.839 99.2634 139.764 98.9115 139.605 98.5946C139.447 98.2778 139.21 98.0058 138.917 97.8059V97.1594H138.529L138.14 89.0088L137.881 84.7395L138.399 84.9982L138.011 84.6101C138.262 84.5484 138.482 84.3946 138.626 84.179C138.77 83.9635 138.827 83.7018 138.787 83.4458C138.806 83.2266 138.752 83.0076 138.635 82.8211C138.519 82.6347 138.345 82.4908 138.14 82.4107C138.319 82.5134 138.463 82.6663 138.555 82.8503C138.647 83.0344 138.683 83.2415 138.659 83.4458C138.635 83.7259 138.522 83.9911 138.336 84.2012C138.148 84.4113 137.899 84.5549 137.622 84.6101C137.334 84.5839 137.066 84.449 136.874 84.2326C136.682 84.0164 136.579 83.7351 136.586 83.4458C136.586 83.2449 136.633 83.0469 136.723 82.8672C136.814 82.6875 136.943 82.5313 137.104 82.4107C136.91 82.5053 136.747 82.6525 136.632 82.8355C136.518 83.0185 136.458 83.23 136.458 83.4458C136.461 83.6938 136.537 83.9355 136.674 84.142C136.813 84.3484 137.007 84.5109 137.234 84.6101L136.846 84.9982L137.364 84.7395L137.104 89.0088L136.716 97.1594H136.328V97.8059C136.047 98.0175 135.818 98.2905 135.66 98.6054C135.503 98.9193 135.421 99.2663 135.421 99.6173C135.421 99.8766 135.421 100.135 135.551 100.135H134.645V100.523H133.997V101.041H133.609V100.523H133.48L133.35 99.6173V98.9709L133.48 98.8413C133.48 98.8072 133.466 98.774 133.442 98.7496C133.418 98.7253 133.384 98.7116 133.35 98.7116C133.252 98.7253 133.161 98.7711 133.091 98.8413C133.091 98.971 133.091 98.9709 133.22 98.9709V99.6173L133.091 100.523H132.962V113.46H131.538V115.013H129.466V113.331H128.948L128.69 110.614L128.56 108.673C128.69 108.545 128.948 108.415 128.948 108.156C128.948 108.019 128.894 107.887 128.796 107.79C128.7 107.693 128.568 107.639 128.43 107.639C128.293 107.639 128.161 107.693 128.064 107.79C127.967 107.887 127.912 108.019 127.912 108.156C127.912 108.415 128.042 108.545 128.3 108.673L128.172 110.614L127.912 113.331H127.654V115.659H127.783V132.479H123.381V125.88L123.252 125.492V124.199H122.863L122.734 122.128L122.604 120.576C122.734 120.446 122.863 120.446 122.863 120.188C122.863 120.085 122.822 119.986 122.749 119.913C122.677 119.841 122.578 119.8 122.475 119.8C122.372 119.8 122.273 119.841 122.2 119.913C122.128 119.986 122.087 120.085 122.087 120.188C122.087 120.318 122.216 120.446 122.345 120.576L122.216 122.128L122.087 124.199H121.699V124.715H120.274V123.939L118.85 123.163H118.591L117.167 123.939V124.587H115.742V124.069H115.354L115.224 121.999L115.096 120.446C115.224 120.318 115.354 120.318 115.354 120.058C115.354 119.956 115.313 119.856 115.241 119.784C115.168 119.711 115.069 119.67 114.966 119.67C114.862 119.67 114.764 119.711 114.692 119.784C114.619 119.856 114.578 119.956 114.578 120.058C114.578 120.188 114.707 120.318 114.836 120.446L114.707 121.999L114.578 124.069H114.189V125.363L114.06 125.751V148.133H113.283L112.635 149.555H112.895V152.272H111.47V152.79L109.917 154.601H109.011V157.706H108.493V158.741H107.845V162.881H105.644V163.787H106.033V168.056C65.5099 177.37 29.6477 188.627 0 201.564C95.1576 171.161 225.012 152.402 368.202 152.402C380.501 152.402 391.635 152.532 403.805 152.79L403.675 114.883V114.107L402.64 99.2293V95.7362H404.323V94.1837H403.417V92.1137H403.935V90.4319H402.38L401.992 79.0471V77.7533H402.122V76.2009H401.734V74.9071H402.122V73.3546H401.734L401.344 63.2635H402.38V61.9698H402.899V58.7354H402.51V58.0886H402.122V55.2424H402.51V53.4311H401.474V50.4556H401.862V49.0324H401.474V45.7982H401.862V44.375H401.474V40.882H402.64V38.4239H403.157V35.7071H402.899V31.4377H401.216V27.4272H401.604V26.9097H400.827V20.3116H401.216V19.7941H400.439V13.4548H400.956V13.1961H400.309V8.79739H400.568V8.27989H400.18V4.13995H400.439V3.62245H400.05V0.517495H400.309V0H399.791V0.517495H400.05V3.49307H399.533V4.13995H399.791V8.27989H399.403V8.79739H399.661V12.9374H399.015V13.4548H399.533V19.6647H398.755V20.1822H399.144V26.7803H398.238V27.2978H398.626V31.3084H396.943V35.5777H396.684V38.2945H397.202V40.7526H398.367V44.2456H397.979V45.6688H398.367V48.9031H397.979V50.3262H398.367V53.3018H397.461V55.113H397.85V57.9592H397.461V58.6061H396.943V61.8404H397.461V63.1341H398.497L398.108 73.2252H397.72V74.7778H398.108V76.0715H397.72V77.6239H397.85V78.9177L397.461 90.3025H395.907V91.9845H396.425V94.1837H395.649V95.7362H397.332V99.2293L396.814 114.107V114.883L396.555 123.293C396.393 123.214 396.217 123.17 396.037 123.163L396.296 125.363H395.519L395.778 123.163C395.505 123.332 395.192 123.421 394.871 123.421C394.551 123.421 394.237 123.332 393.965 123.163L394.224 125.363H393.059L393.318 123.163C393.046 123.332 392.732 123.421 392.412 123.421C392.092 123.421 391.778 123.332 391.505 123.163L391.764 125.363H390.987L391.247 123.163C390.975 123.332 390.66 123.421 390.34 123.421C390.02 123.421 389.706 123.332 389.434 123.163L389.693 125.363H388.916L389.175 123.163C388.902 123.332 388.589 123.421 388.268 123.421C387.948 123.421 387.635 123.332 387.363 123.163L387.621 125.363H386.715V120.576H386.845V119.412H385.291L384.126 114.237L382.961 119.412H381.925V120.834H382.183V125.751H381.666L381.925 123.551C381.653 123.72 381.339 123.809 381.019 123.809C380.699 123.809 380.384 123.72 380.112 123.551L380.372 125.751H379.594L379.854 123.551C379.581 123.72 379.267 123.809 378.947 123.809C378.627 123.809 378.313 123.72 378.041 123.551L378.3 125.751H377.393L377.653 123.551C377.38 123.72 377.066 123.809 376.746 123.809C376.426 123.809 376.112 123.72 375.84 123.551L376.099 125.751H375.193L375.452 123.551C375.18 123.72 374.865 123.809 374.545 123.809C374.225 123.809 373.911 123.72 373.639 123.551L373.899 125.751H373.121L373.38 123.551C373.108 123.72 372.794 123.809 372.474 123.809C372.154 123.809 371.84 123.72 371.568 123.551L371.826 125.751H371.05L371.308 123.551C371.036 123.72 370.723 123.809 370.403 123.809C370.082 123.809 369.769 123.72 369.497 123.551L369.755 125.751H368.979L369.237 123.551C369.108 123.551 368.849 123.681 368.719 123.681V98.3236L368.46 94.7012V94.1837H368.979V93.1488H369.367V90.4319H368.979L368.46 88.7501L367.813 83.1871L367.166 88.7501L366.648 90.4319H366.26V90.9494L365.095 90.4319H363.282V85.9038H362.505V78.5296H362.246L361.728 76.2009H361.34V72.5784H361.599V70.8966H361.987V68.5679H361.599V63.2635H361.858L361.34 61.3229L360.433 58.7354H358.103L354.608 35.9658L356.291 37.3889L355.514 35.3189L357.327 34.0252L354.996 34.1545L354.478 31.9552L353.96 34.1545L351.63 34.0252L353.442 35.3189L352.665 37.3889L354.348 35.9658L350.853 58.7354H348.652L347.746 61.3229L347.228 63.2635H347.487V68.5679H347.099V70.8966H347.487V72.5784H347.746V76.589H347.357L346.84 78.9177H346.452V86.292H345.934V90.82H345.156L343.991 91.3375V90.82H343.603L343.085 89.1382L342.438 83.5752L341.79 89.1382L341.272 90.82H340.884V93.5369H341.272V94.5719H341.79V95.0893L341.532 98.7116V126.009H341.014L341.272 123.811C341 123.978 340.687 124.068 340.366 124.068C340.046 124.068 339.733 123.978 339.46 123.811L339.719 126.009H338.942L339.201 123.811C338.929 123.978 338.615 124.068 338.295 124.068C337.975 124.068 337.66 123.978 337.388 123.811L337.648 126.009H336.871L337.13 123.811C336.858 123.978 336.543 124.068 336.223 124.068C335.903 124.068 335.589 123.978 335.317 123.811L335.576 126.009H334.799L335.059 123.811C334.786 123.978 334.472 124.068 334.152 124.068C333.832 124.068 333.518 123.978 333.246 123.811L333.504 126.009H332.728L332.986 123.811C332.714 123.978 332.401 124.068 332.081 124.068C331.76 124.068 331.447 123.978 331.175 123.811L331.433 126.009H330.139L330.397 123.811C330.125 123.978 329.812 124.068 329.491 124.068C329.171 124.068 328.858 123.978 328.585 123.811L328.844 126.009H327.938L328.196 123.811C327.924 123.978 327.611 124.068 327.291 124.068C326.97 124.068 326.657 123.978 326.384 123.811L326.643 126.009H326.125V121.094H326.255V119.67H324.442L323.277 114.495L322.111 119.67H320.946V121.094H321.205V126.009H320.688L320.946 123.811C320.674 123.978 320.36 124.068 320.04 124.068C319.72 124.068 319.406 123.978 319.134 123.811L319.393 126.009H318.616L318.875 123.811C318.603 123.978 318.289 124.068 317.969 124.068C317.649 124.068 317.335 123.978 317.062 123.811L317.321 126.009H316.544L316.804 123.811C316.532 123.978 316.218 124.068 315.898 124.068C315.577 124.068 315.263 123.978 314.991 123.811L315.25 126.009H314.085L314.343 123.811C314.071 123.978 313.758 124.068 313.437 124.068C313.117 124.068 312.803 123.978 312.531 123.811L312.79 126.009H312.014L312.272 123.811C312 123.978 311.686 124.068 311.366 124.068C311.046 124.068 310.732 123.978 310.46 123.811L310.719 126.009H309.941L310.201 123.811C309.929 123.978 309.615 124.068 309.295 124.068C308.975 124.068 308.66 123.978 308.388 123.811L308.647 126.009H307.87L308.129 123.811C307.857 123.978 307.543 124.068 307.223 124.068C306.902 124.068 306.589 123.978 306.317 123.811L306.576 126.009H305.799L306.058 123.811C305.785 123.978 305.472 124.068 305.151 124.068C304.831 124.068 304.517 123.978 304.245 123.811L304.504 126.009H303.728L303.986 123.811C303.714 123.978 303.4 124.068 303.08 124.068C302.76 124.068 302.446 123.978 302.174 123.811L302.433 126.009H301.656L301.915 123.811C301.643 123.978 301.329 124.068 301.009 124.068C300.689 124.068 300.375 123.978 300.102 123.811L300.361 126.009H299.196V123.681H298.549V121.87H298.678V120.576H298.29V120.058L297.125 115.789H297.383V115.271H297.125V111.908H297.383V111.39H296.348L295.054 107.768L293.759 111.39H292.723V111.908H292.981V115.271H292.723V115.789H292.981L291.817 120.058V120.576H291.428V121.482H291.558V123.293H290.91V133.125H289.098V133.643H288.191V131.961H286.897V134.548H285.214V139.335H283.013V131.314H278.741V132.995H277.576V131.831H272.656V124.069H270.584L267.865 68.5679H267.089V68.309H266.182V67.0153H263.463C262.945 63.6516 262.427 61.5817 261.781 61.5817C261.522 61.5817 261.392 61.8404 261.262 62.0992H248.704C248.575 61.711 248.316 61.5817 248.186 61.5817C246.633 61.5817 245.467 73.4841 245.467 88.1032C245.467 92.3726 245.597 96.3831 245.727 100.005L243.008 99.8766V90.1732H243.526V72.0609H243.008V58.9942H243.526V42.4344H240.289V40.6232H234.592V42.4344H233.557V98.9709L231.615 100.005V95.6068H232.133V75.9421H230.968V59.253H231.356V38.2945H228.249V36.2245H221.776V38.2945H220.351V59.1235H219.445V77.8827H220.093V94.7012L218.798 95.4775V78.9177C215.273 78.9888 211.902 80.373 209.346 82.7988C208.052 94.1838 207.663 119.153 207.663 119.153H206.628V99.747C206.499 99.359 206.11 99.0996 205.592 98.582C205.334 97.2886 204.168 96.1243 201.967 95.0893V47.7387H200.932V46.1863H200.414V44.7631C199.875 44.4917 199.312 44.275 198.731 44.1163C195.816 43.089 192.758 42.5216 189.668 42.4344Z" fill="#F2113D"/>
<path d="M115.224 218.64H112.247L103.184 197.553L93.9921 218.64H91.0143L102.925 191.472H103.573L115.224 218.64Z" fill="black"/>
<path d="M141.248 218.64H138.399V197.811L120.404 218.64H119.756V191.472H122.475V212.689L140.6 191.472H141.248V218.64Z" fill="black"/>
<path d="M147.721 222.651H145.002V216.054H147.203L157.948 191.343H158.855L170.118 216.054H172.19V222.651H169.471V218.641H147.591V222.651H147.721ZM150.31 216.054H166.882L158.337 196.907L150.31 216.054Z" fill="black"/>
<path d="M176.204 191.472H191.869V194.189H178.922V202.728H191.74V205.445H178.922V216.183H191.74V218.9H176.204V191.472Z" fill="black"/>
<path d="M196.53 191.472H201.967C204.089 191.403 206.213 191.533 208.31 191.86C209.79 192.189 211.114 193.01 212.065 194.189C212.992 195.517 213.489 197.098 213.489 198.717C213.489 200.336 212.992 201.917 212.065 203.245C211.034 204.458 209.617 205.28 208.052 205.575C205.78 205.9 203.484 206.031 201.19 205.963H199.248V218.641H196.53V191.472ZM199.248 194.06V203.245H203.909C205.31 203.327 206.714 203.152 208.052 202.728C208.899 202.392 209.621 201.806 210.123 201.046C210.649 200.288 210.921 199.382 210.9 198.459C210.901 197.578 210.63 196.72 210.123 196.001C209.639 195.276 208.969 194.695 208.181 194.319C206.879 193.937 205.525 193.762 204.168 193.801H199.248V194.06Z" fill="black"/>
<path d="M218.927 191.472H221.646V203.116H223.588C226.145 203.014 228.706 203.188 231.226 203.633C232.706 203.962 234.03 204.783 234.98 205.963C235.91 207.386 236.406 209.049 236.406 210.749C236.406 212.449 235.91 214.112 234.98 215.536C234.153 216.752 232.91 217.626 231.486 217.994C229.103 218.498 226.669 218.715 224.235 218.64H218.798V191.472H218.927ZM221.646 216.053H224.495C226.488 216.141 228.485 216.011 230.45 215.665C230.91 215.547 231.343 215.336 231.721 215.048C232.1 214.759 232.416 214.396 232.651 213.983C233.195 213.088 233.465 212.054 233.427 211.008C233.441 209.806 233.079 208.63 232.391 207.644C232.095 207.217 231.71 206.857 231.263 206.589C230.818 206.322 230.319 206.153 229.802 206.091C227.823 205.896 225.835 205.809 223.847 205.833H221.516V216.053H221.646ZM239.642 191.472H242.361V218.64H239.642V191.472Z" fill="black"/>
<path d="M279.777 218.64H259.58V191.472H262.299V216.183H274.857V191.472H277.576V216.183H282.236V222.781H279.647V218.64H279.777Z" fill="black"/>
<path d="M307.87 218.64H305.022V197.811L287.026 218.64H286.379V191.472H289.098V212.689L307.223 191.472H307.87V218.64Z" fill="black"/>
<path d="M326.255 191.472H328.974V194.966H331.045C335.187 194.966 338.036 195.742 339.589 197.423C340.345 198.163 340.942 199.05 341.342 200.029C341.743 201.008 341.939 202.059 341.92 203.116C341.96 205.127 341.218 207.075 339.849 208.55C338.424 210.102 335.835 210.878 331.821 210.878H328.844V218.64H326.125V210.878H323.147C321.4 210.897 319.658 210.679 317.969 210.232C316.532 209.812 315.293 208.895 314.473 207.644C313.523 206.278 313.024 204.649 313.049 202.986C313.028 201.929 313.225 200.878 313.625 199.9C314.026 198.921 314.623 198.035 315.38 197.295C316.933 195.742 319.781 194.836 323.924 194.836H325.995V191.472H326.255ZM326.255 197.553H323.147C321.274 197.476 319.422 197.972 317.839 198.976C317.208 199.431 316.7 200.035 316.36 200.736C316.021 201.436 315.862 202.209 315.898 202.986C315.878 203.686 316.006 204.381 316.274 205.028C316.541 205.674 316.942 206.257 317.451 206.739C318.06 207.294 318.776 207.718 319.555 207.985C320.335 208.253 321.161 208.357 321.982 208.291H326.255V197.553ZM328.974 197.553V208.291H333.246C334.047 208.345 334.85 208.236 335.607 207.969C336.364 207.702 337.059 207.284 337.648 206.739C338.155 206.257 338.556 205.674 338.824 205.028C339.092 204.381 339.22 203.686 339.201 202.986C339.213 202.226 339.056 201.472 338.742 200.779C338.429 200.086 337.967 199.471 337.388 198.976C335.865 197.834 333.979 197.282 332.08 197.423H328.974V197.553Z" fill="black"/>
<path d="M347.487 191.472H352.925C355.047 191.403 357.171 191.533 359.268 191.86C360.748 192.189 362.072 193.01 363.022 194.189C363.949 195.517 364.447 197.098 364.447 198.717C364.447 200.336 363.949 201.917 363.022 203.245C361.991 204.458 360.575 205.28 359.01 205.575C356.738 205.9 354.442 206.031 352.147 205.963H350.206V218.641H347.487V191.472ZM350.206 194.06V203.245H354.866C356.267 203.327 357.671 203.152 359.01 202.728C359.856 202.392 360.579 201.806 361.081 201.046C361.607 200.288 361.878 199.382 361.858 198.459C361.859 197.578 361.587 196.72 361.081 196.001C360.597 195.276 359.926 194.695 359.139 194.319C357.836 193.937 356.482 193.762 355.126 193.801H350.206V194.06Z" fill="black"/>
<path d="M382.961 190.696C384.878 190.65 386.784 190.992 388.565 191.703C390.345 192.415 391.963 193.481 393.318 194.836C395.334 196.832 396.71 199.382 397.272 202.161C397.834 204.941 397.556 207.825 396.474 210.446C395.391 213.067 393.553 215.307 391.193 216.881C388.833 218.456 386.058 219.293 383.219 219.288C381.324 219.323 379.44 218.974 377.683 218.263C375.925 217.551 374.33 216.492 372.992 215.148C371.65 213.837 370.59 212.265 369.878 210.53C369.165 208.795 368.816 206.933 368.849 205.057C368.832 202.511 369.502 200.008 370.791 197.812C372.029 195.626 373.814 193.799 375.97 192.508C378.102 191.306 380.512 190.681 382.961 190.696ZM383.091 193.413C381.086 193.407 379.117 193.943 377.394 194.965C375.608 195.974 374.131 197.45 373.122 199.235C372.079 201.044 371.542 203.099 371.568 205.186C371.565 206.7 371.86 208.198 372.438 209.597C373.016 210.995 373.864 212.265 374.935 213.336C376.006 214.405 377.277 215.253 378.677 215.831C380.076 216.409 381.577 216.704 383.091 216.7C385.136 216.708 387.146 216.172 388.916 215.148C390.702 214.14 392.18 212.664 393.188 210.879C394.231 209.07 394.768 207.014 394.742 204.927C394.765 202.895 394.235 200.895 393.21 199.141C392.183 197.386 390.7 195.943 388.916 194.965C387.134 193.973 385.132 193.439 383.091 193.413Z" fill="black"/>
<path d="M403.028 191.472H408.337C410.013 191.377 411.691 191.642 413.256 192.248C414.356 192.765 415.296 193.57 415.975 194.577C416.648 195.619 417.007 196.831 417.011 198.071C417.033 199.255 416.718 200.421 416.104 201.434C415.476 202.47 414.582 203.319 413.515 203.893C414.682 204.263 415.777 204.833 416.751 205.574C417.494 206.233 418.108 207.022 418.564 207.903C418.977 208.841 419.197 209.853 419.212 210.879C419.233 211.929 419.023 212.971 418.599 213.932C418.174 214.894 417.543 215.75 416.751 216.442C415.884 217.243 414.863 217.863 413.751 218.263C412.639 218.663 411.459 218.835 410.278 218.77H402.769V191.472H403.028ZM405.618 194.06V202.728H407.171C408.573 202.82 409.979 202.644 411.314 202.21C412.16 201.875 412.883 201.288 413.385 200.528C413.911 199.77 414.183 198.864 414.162 197.941C414.197 197.378 414.098 196.815 413.872 196.298C413.648 195.781 413.303 195.324 412.867 194.966C411.629 194.194 410.18 193.832 408.725 193.93H405.618V194.06ZM405.618 205.574V216.054H408.983C410.478 216.111 411.971 215.892 413.385 215.406C414.277 215.026 415.041 214.397 415.586 213.595C416.153 212.801 416.469 211.854 416.493 210.879C416.523 209.732 416.105 208.618 415.327 207.774C414.478 206.83 413.34 206.193 412.091 205.962C410.515 205.646 408.907 205.515 407.3 205.574H405.618Z" fill="black"/>
<path d="M437.595 190.696C439.512 190.65 441.419 190.992 443.199 191.703C444.98 192.415 446.597 193.481 447.952 194.836C449.969 196.832 451.344 199.382 451.906 202.161C452.468 204.941 452.19 207.825 451.108 210.446C450.025 213.067 448.187 215.307 445.827 216.881C443.467 218.456 440.692 219.293 437.854 219.288C435.958 219.323 434.074 218.974 432.317 218.263C430.559 217.551 428.964 216.492 427.626 215.148C426.284 213.837 425.224 212.265 424.512 210.53C423.8 208.795 423.45 206.933 423.483 205.057C423.466 202.511 424.138 200.008 425.425 197.812C426.663 195.626 428.448 193.799 430.604 192.508C432.749 191.336 435.151 190.714 437.595 190.696ZM437.725 193.413C435.72 193.407 433.751 193.943 432.028 194.965C430.242 195.974 428.765 197.45 427.756 199.235C426.713 201.044 426.177 203.099 426.202 205.186C426.199 206.7 426.495 208.198 427.072 209.597C427.65 210.995 428.499 212.265 429.57 213.336C430.64 214.405 431.911 215.253 433.311 215.831C434.71 216.409 436.211 216.704 437.725 216.7C439.77 216.708 441.781 216.172 443.55 215.148C445.337 214.14 446.814 212.664 447.823 210.879C448.865 209.07 449.402 207.014 449.377 204.927C449.4 202.895 448.87 200.895 447.844 199.141C446.818 197.386 445.334 195.943 443.55 194.965C441.781 193.942 439.77 193.406 437.725 193.413Z" fill="black"/>
<path d="M479.024 218.641H476.177V197.811L458.181 218.641H457.533V191.472H460.252V212.689L478.377 191.472H479.024V218.641ZM461.806 184.874H464.265C464.662 185.514 465.251 186.012 465.948 186.298C466.73 186.619 467.564 186.795 468.408 186.815C469.204 186.858 470 186.727 470.739 186.427C471.446 186.095 472.034 185.553 472.421 184.874H474.752C474.618 185.464 474.365 186.021 474.009 186.51C473.653 187 473.201 187.411 472.681 187.721C471.34 188.484 469.822 188.885 468.279 188.885C466.736 188.885 465.219 188.484 463.877 187.721C462.862 187.055 462.126 186.043 461.806 184.874Z" fill="black"/>
<path d="M50.8799 242.575V239.858H65.7685V242.575H59.6836V267.156H56.9648V242.575H50.8799Z" fill="black"/>
<path d="M69.6525 239.988H75.09C77.2122 239.919 79.3361 240.048 81.4339 240.376C82.9135 240.703 84.2374 241.525 85.1884 242.704C86.1151 244.033 86.612 245.613 86.612 247.232C86.612 248.852 86.1151 250.432 85.1884 251.76C84.157 252.973 82.7402 253.796 81.1749 254.089C78.9031 254.416 76.6074 254.545 74.3132 254.477H72.3713V267.156H69.6525V239.988ZM72.5008 242.575V251.76H77.1615C78.5625 251.842 79.9666 251.666 81.3044 251.243C82.1507 250.907 82.8737 250.32 83.3759 249.561C83.9016 248.802 84.1735 247.896 84.1527 246.973C84.1542 246.094 83.8828 245.235 83.3759 244.515C82.9247 243.792 82.2394 243.244 81.4339 242.963C80.1315 242.581 78.7772 242.407 77.4205 242.446H72.5008V242.575Z" fill="black"/>
<path d="M103.314 239.988L116.001 267.156H113.023L108.751 258.229H96.9698L92.6975 267.156H89.7198L102.537 239.988H103.314ZM102.925 245.679L98.2644 255.512H107.586L102.925 245.679Z" fill="black"/>
<path d="M120.144 239.988H122.863V251.372H136.716V239.988H139.435V267.156H136.716V253.959H122.863V267.156H120.144V239.988Z" fill="black"/>
<path d="M171.542 245.033L169.341 246.715C168.234 245.209 166.765 244.008 165.069 243.222C163.364 242.441 161.508 242.043 159.632 242.058C157.504 242.05 155.411 242.584 153.547 243.61C151.795 244.607 150.326 246.031 149.274 247.75C148.232 249.559 147.696 251.614 147.721 253.701C147.684 255.238 147.964 256.766 148.543 258.19C149.122 259.615 149.988 260.906 151.087 261.981C152.24 263.084 153.6 263.95 155.089 264.527C156.578 265.104 158.165 265.382 159.761 265.344C161.594 265.348 163.406 264.945 165.063 264.161C166.72 263.378 168.181 262.235 169.341 260.817L171.542 262.499C170.197 264.212 168.468 265.586 166.494 266.509C164.334 267.464 161.994 267.949 159.632 267.932C157.513 268.049 155.396 267.678 153.443 266.848C151.49 266.018 149.754 264.752 148.369 263.146C146.047 260.452 144.802 256.997 144.873 253.443C144.839 251.567 145.189 249.705 145.901 247.969C146.614 246.234 147.673 244.663 149.016 243.351C150.404 242.004 152.045 240.944 153.845 240.235C155.645 239.524 157.568 239.176 159.502 239.211C161.881 239.173 164.234 239.705 166.364 240.764C168.413 241.745 170.19 243.21 171.542 245.033Z" fill="black"/>
<path d="M188.761 239.988H191.48V243.481H193.551C197.695 243.481 200.542 244.257 202.097 245.939C202.853 246.679 203.449 247.566 203.85 248.545C204.251 249.523 204.447 250.573 204.427 251.631C204.467 253.642 203.724 255.59 202.355 257.064C200.932 258.617 198.341 259.393 194.329 259.393H191.351V267.156H188.632V259.393H185.913C184.166 259.412 182.423 259.194 180.735 258.746C179.299 258.328 178.059 257.41 177.239 256.159C176.289 254.794 175.79 253.165 175.815 251.502C175.795 250.444 175.991 249.394 176.392 248.415C176.792 247.436 177.389 246.549 178.145 245.809C179.699 244.257 182.547 243.351 186.69 243.351H188.761V239.988ZM188.761 246.068H185.655C183.781 245.991 181.929 246.488 180.346 247.491C179.714 247.946 179.207 248.55 178.867 249.25C178.528 249.951 178.369 250.725 178.404 251.502C178.385 252.201 178.513 252.897 178.781 253.543C179.049 254.189 179.45 254.772 179.958 255.254C180.566 255.809 181.282 256.234 182.061 256.501C182.841 256.768 183.667 256.871 184.489 256.806H188.761V246.068ZM191.48 246.068V256.806H195.752C196.553 256.861 197.357 256.751 198.114 256.484C198.871 256.217 199.565 255.798 200.154 255.254C200.662 254.772 201.063 254.189 201.331 253.543C201.599 252.897 201.727 252.201 201.708 251.502C201.719 250.741 201.563 249.988 201.25 249.294C200.937 248.601 200.474 247.985 199.896 247.491C198.373 246.349 196.487 245.797 194.587 245.939H191.48V246.068Z" fill="black"/>
<path d="M222.94 239.211C224.858 239.164 226.764 239.506 228.544 240.218C230.325 240.93 231.942 241.996 233.298 243.351C235.314 245.347 236.691 247.896 237.253 250.676C237.815 253.455 237.537 256.339 236.454 258.961C235.371 261.582 233.533 263.822 231.173 265.397C228.813 266.971 226.037 267.809 223.2 267.803C221.303 267.838 219.42 267.489 217.662 266.777C215.904 266.066 214.309 265.007 212.972 263.663C211.629 262.351 210.57 260.78 209.858 259.044C209.145 257.309 208.795 255.447 208.829 253.571C208.812 251.026 209.483 248.523 210.771 246.327C211.957 244.144 213.717 242.327 215.862 241.073C218.008 239.818 220.456 239.175 222.94 239.211ZM223.07 241.928C221.065 241.921 219.097 242.458 217.374 243.481C215.587 244.489 214.111 245.965 213.101 247.75C212.059 249.559 211.522 251.614 211.547 253.701C211.544 255.214 211.84 256.712 212.418 258.111C212.996 259.509 213.844 260.781 214.915 261.85C215.985 262.921 217.258 263.769 218.657 264.346C220.057 264.923 221.556 265.218 223.07 265.216C225.115 265.222 227.126 264.687 228.897 263.663C230.648 262.666 232.117 261.242 233.169 259.523C234.211 257.714 234.747 255.659 234.722 253.571C234.763 251.524 234.224 249.506 233.169 247.75C232.117 246.031 230.648 244.607 228.897 243.61C227.162 242.489 225.136 241.905 223.07 241.928Z" fill="black"/>
<path d="M243.008 239.988H248.446C250.568 239.919 252.692 240.048 254.789 240.376C256.269 240.703 257.593 241.525 258.544 242.704C259.471 244.033 259.968 245.613 259.968 247.232C259.968 248.852 259.471 250.432 258.544 251.76C257.512 252.973 256.096 253.796 254.531 254.089C252.259 254.416 249.963 254.545 247.669 254.477H245.727V267.156H243.008V239.988ZM245.727 242.575V251.76H250.387C251.788 251.842 253.193 251.666 254.531 251.243C255.377 250.907 256.1 250.32 256.602 249.561C257.128 248.802 257.4 247.896 257.379 246.973C257.38 246.094 257.109 245.235 256.602 244.515C256.151 243.792 255.465 243.244 254.661 242.963C253.358 242.581 252.003 242.407 250.647 242.446H245.727V242.575Z" fill="black"/>
<path d="M264.24 267.156L268.124 239.988H268.513L279.647 262.369L290.652 239.988H291.04L294.924 267.156H292.205L289.486 247.75L279.905 267.156H279.259L269.548 247.491L266.829 267.156H264.24Z" fill="black"/>
<path d="M311.366 239.988L324.054 267.156H321.076L316.804 258.229H305.022L300.749 267.156H297.772L310.589 239.988H311.366ZM311.107 245.679L306.446 255.512H315.768L311.107 245.679Z" fill="black"/>
<path d="M348.523 267.156H328.326V239.988H331.045V264.698H343.603V239.988H346.322V264.698H350.982V271.296H348.393V267.156H348.523Z" fill="black"/>
<path d="M376.617 267.156H373.769V246.327L355.773 267.156H355.125V239.988H357.844V261.205L375.969 239.988H376.617V267.156Z" fill="black"/>
<path d="M404.711 267.156H401.862V246.327L383.867 267.156H383.219V239.988H385.939V261.205L404.063 239.988H404.711V267.156Z" fill="black"/>
<path d="M51.1388 37.2596H52.6925L55.7996 42.3051L58.9068 37.2596H60.4604L56.5764 43.5988L60.7193 50.3263H59.1658L55.7996 44.8926L52.4336 50.3263H50.8799L55.0228 43.5988L51.1388 37.2596Z" fill="black"/>
<path d="M68.2289 37.2596L74.3138 50.3263H72.8897L70.8182 46.057H65.2511L63.1797 50.3263H61.7555L67.97 37.2596H68.2289ZM68.0994 39.9765L65.8984 44.6339H70.3003L68.0994 39.9765Z" fill="black"/>
<path d="M76.2554 37.2596H77.55V42.1758L82.7287 37.2596H84.4118L78.1974 43.0814L84.9296 50.1969H83.2465L77.6795 44.2458V50.3263H76.3849V37.2596H76.2554Z" fill="black"/>
<path d="M92.3091 37.2596L98.3941 50.3263H96.9698L94.8984 46.057H89.3314L87.2599 50.3263H85.8358L92.0501 37.2596H92.3091ZM92.1796 39.9765L89.9787 44.6339H94.3806L92.1796 39.9765Z" fill="black"/>
<path d="M99.1707 38.5533V37.2596H106.292V38.5533H103.444V50.3263H102.149V38.5533H99.1707Z" fill="black"/>
<path d="M114.319 36.8714C115.228 36.8407 116.134 36.9972 116.98 37.3309C117.826 37.6646 118.595 38.1685 119.239 38.8115C119.882 39.4544 120.386 40.2226 120.721 41.0684C121.055 41.9141 121.211 42.8194 121.18 43.7281C121.203 44.6166 121.042 45.5001 120.708 46.3236C120.375 47.1472 119.874 47.8932 119.238 48.5149C118.61 49.1413 117.862 49.6357 117.04 49.969C116.217 50.3024 115.336 50.4677 114.448 50.4556C112.617 50.4816 110.849 49.7843 109.529 48.5149C108.877 47.9052 108.366 47.1614 108.031 46.3349C107.696 45.5084 107.544 44.619 107.586 43.7281C107.566 42.5264 107.866 41.3409 108.459 40.2945C109.051 39.2481 109.911 38.3789 110.952 37.777C111.99 37.2216 113.142 36.9118 114.319 36.8714ZM114.448 38.1651C113.49 38.1797 112.551 38.4475 111.73 38.9413C110.859 39.4235 110.14 40.1409 109.658 41.0114C109.146 41.8724 108.878 42.8561 108.881 43.8575C108.863 44.5759 108.992 45.2904 109.259 45.9578C109.526 46.625 109.926 47.2311 110.434 47.7392C110.942 48.2473 111.549 48.647 112.217 48.9138C112.885 49.1805 113.6 49.3089 114.319 49.2912C115.321 49.2946 116.305 49.0264 117.167 48.5149C118.038 48.0329 118.756 47.3155 119.238 46.445C119.747 45.5827 120.016 44.5999 120.016 43.5988C120.016 42.5976 119.747 41.6148 119.238 40.7526C118.75 39.9192 118.03 39.2451 117.167 38.812C116.314 38.4147 115.389 38.1946 114.448 38.1651Z" fill="black"/>
<path d="M123.9 37.2596H125.194V42.6932H131.797V37.2596H133.092V50.3263H131.797V43.987H125.194V50.3263H123.9V37.2596Z" fill="black"/>
</svg>
